<?xml version="1.0" encoding="utf-8"?>
<!-- Generator: Adobe Illustrator 24.0.1, SVG Export Plug-In . SVG Version: 6.00 Build 0)  -->
<svg version="1.1" id="Layer_1" xmlns="http://www.w3.org/2000/svg" xmlns:xlink="http://www.w3.org/1999/xlink" x="0px" y="0px"
	 viewBox="0 0 495 425" style="enable-background:new 0 0 495 425;" xml:space="preserve">
<style type="text/css">
	.st0{fill:url(#SVGID_1_);}
	.st1{fill:url(#SVGID_2_);}
	.st2{fill:url(#SVGID_3_);}
	.st3{fill:url(#SVGID_4_);}
	.st4{fill:url(#SVGID_5_);}
	.st5{fill:url(#SVGID_6_);}
	.st6{fill:url(#SVGID_7_);}
	.st7{fill:url(#SVGID_8_);}
	.st8{fill:url(#SVGID_9_);}
	.st9{fill:url(#SVGID_10_);}
	.st10{fill:url(#SVGID_11_);}
	.st11{fill:url(#SVGID_12_);}
	.st12{fill:url(#SVGID_13_);}
	.st13{fill:url(#SVGID_14_);}
	.st14{fill:url(#SVGID_15_);}
	.st15{fill:url(#SVGID_16_);}
	.st16{fill:url(#SVGID_17_);}
	.st17{fill:url(#SVGID_18_);}
	.st18{fill:url(#SVGID_19_);}
	.st19{fill:url(#SVGID_20_);}
	.st20{fill:url(#SVGID_21_);}
	.st21{fill:url(#SVGID_22_);}
</style>
<g>
	<g>
		<g>
			<g>
				
					<linearGradient id="SVGID_1_" gradientUnits="userSpaceOnUse" x1="454.7624" y1="-94.6098" x2="491.2823" y2="-94.6098" gradientTransform="matrix(1 0 0 1 0 288)">
					<stop  offset="0" style="stop-color:#5600A0"/>
					<stop  offset="0.2557" style="stop-color:#500099"/>
					<stop  offset="0.615" style="stop-color:#410087"/>
					<stop  offset="1" style="stop-color:#2A006C"/>
				</linearGradient>
				<path class="st0" d="M473.1,216.9c-0.2,0-1-0.1-1.2-1.4c-1.6-13.1-5.7-18.5-16-20.6c-0.7-0.1-1.2-0.8-1.2-1.6s0.5-1.5,1.2-1.6
					c10.1-2,14-7.2,15.6-20.5l0,0c0.1-0.8,0.7-1.4,1.4-1.4l0,0c0.8,0,1.3,0.6,1.4,1.4c1.6,13.3,5.5,18.5,15.6,20.5
					c0.7,0.1,1.2,0.8,1.2,1.6s-0.5,1.5-1.2,1.6c-10.1,2-14.2,7.4-15.8,20.5C474.2,216.8,473.4,216.9,473.1,216.9z M456.5,193.4
					c9.9,2,14.7,7.2,16.7,18.6c2-11.5,6.7-16.6,16.5-18.6l0,0c-10.3-2.1-14.8-7.5-16.6-20.2C471.3,185.9,466.8,191.2,456.5,193.4
					C456.5,193.3,456.5,193.3,456.5,193.4z"/>
				
					<linearGradient id="SVGID_2_" gradientUnits="userSpaceOnUse" x1="453.7322" y1="-94.5097" x2="492.3322" y2="-94.5097" gradientTransform="matrix(1 0 0 1 0 288)">
					<stop  offset="0" style="stop-color:#5600A0"/>
					<stop  offset="0.2557" style="stop-color:#500099"/>
					<stop  offset="0.615" style="stop-color:#410087"/>
					<stop  offset="1" style="stop-color:#2A006C"/>
				</linearGradient>
				<path class="st1" d="M473.1,218c-0.9,0-2-0.6-2.2-2.3c-1.5-12.8-5.3-17.7-15.2-19.7c-1.2-0.2-2-1.3-2-2.6s0.8-2.4,2-2.6
					c9.7-2,13.3-6.7,14.8-19.6c0.2-1.4,1.2-2.3,2.5-2.3s2.3,1,2.5,2.3c1.5,12.9,5.1,17.6,14.8,19.6c1.2,0.2,2,1.3,2,2.6
					s-0.8,2.4-2,2.6c-9.7,2-13.5,6.9-15,19.6C475.2,217.3,474.1,218,473.1,218z M473.2,215.9L473.2,215.9L473.2,215.9z M472.6,212.9
					c0.1,0.8,0.2,1.7,0.3,2.5c0,0.3,0.1,0.4,0.2,0.5c0,0,0.1-0.2,0.2-0.5c0.1-0.8,0.2-1.7,0.3-2.5c-0.2,0.1-0.3,0.1-0.5,0.1l0,0
					C473,213,472.8,213,472.6,212.9z M460.5,193.4c6.6,2.2,10.6,6.6,12.7,14c2.1-7.4,6-11.7,12.5-14c-6.8-2.3-10.6-6.7-12.6-14.7
					C471.1,186.7,467.3,191.1,460.5,193.4z M473.1,170.8c-0.3,0-0.4,0.3-0.4,0.5c0,0.3-0.1,0.6-0.1,0.9c0.2-0.1,0.3-0.1,0.5-0.1l0,0
					c0.2,0,0.4,0,0.5,0.1c0-0.3-0.1-0.6-0.1-0.9C473.5,171.1,473.3,170.8,473.1,170.8z"/>
			</g>
			<g>
				
					<linearGradient id="SVGID_3_" gradientUnits="userSpaceOnUse" x1="454.2723" y1="-94.6598" x2="491.7623" y2="-94.6598" gradientTransform="matrix(1 0 0 1 0 288)">
					<stop  offset="0" style="stop-color:#5600A0"/>
					<stop  offset="0.2557" style="stop-color:#500099"/>
					<stop  offset="0.615" style="stop-color:#410087"/>
					<stop  offset="1" style="stop-color:#2A006C"/>
				</linearGradient>
				<path class="st2" d="M473.1,217.4c-0.2,0-1.4-0.1-1.7-1.8c-1.5-12.9-5.6-18.2-15.6-20.2c-0.9-0.2-1.6-1-1.6-2.1s0.7-1.9,1.6-2.1
					c9.8-2,13.7-7,15.2-20.1c0.1-1.1,0.9-1.9,1.9-1.9s1.8,0.8,1.9,1.9c1.5,13,5.4,18.1,15.2,20.1c0.9,0.2,1.6,1,1.6,2.1
					c0,1-0.7,1.9-1.6,2.1c-9.9,2-13.9,7.2-15.4,20.1C474.6,217.3,473.4,217.4,473.1,217.4z M473.1,170.3c-0.5,0-0.9,0.4-1,1
					c-1.6,13.5-5.6,18.8-16,20.9c-0.5,0.1-0.8,0.6-0.8,1.1s0.3,1,0.8,1.1c10.5,2.1,14.8,7.6,16.3,21c0.1,0.9,0.5,1,0.7,1
					s0.6-0.1,0.7-1c1.6-13.4,5.8-18.8,16.2-20.9c0.5-0.1,0.8-0.6,0.8-1.1s-0.3-1-0.8-1.1c-10.4-2.1-14.4-7.4-16-20.9
					C474,170.7,473.6,170.3,473.1,170.3z M473.2,212.5c-0.2,0-0.4-0.2-0.5-0.4c-1.9-11.1-6.5-16.2-16.3-18.2c-0.2,0-0.4-0.2-0.4-0.5
					l0,0c0-0.2,0.2-0.4,0.4-0.5c10.2-2.1,14.4-7.3,16.2-19.8c0-0.2,0.2-0.4,0.5-0.4c0.2,0,0.4,0.2,0.5,0.4
					c1.8,12.5,6,17.7,16.2,19.8c0.2,0,0.4,0.2,0.4,0.5s-0.2,0.4-0.4,0.5c-9.7,2-14.2,7.1-16.1,18.2
					C473.6,212.3,473.4,212.5,473.2,212.5L473.2,212.5z M458.6,193.3c8.2,2.2,12.5,6.9,14.6,16.2c2.1-9.2,6.3-14,14.4-16.2
					c-8.4-2.2-12.6-7.2-14.5-17.3C471.1,186.2,466.9,191.1,458.6,193.3z"/>
				
					<linearGradient id="SVGID_4_" gradientUnits="userSpaceOnUse" x1="453.2524" y1="-94.6598" x2="492.7923" y2="-94.6598" gradientTransform="matrix(1 0 0 1 0 288)">
					<stop  offset="0" style="stop-color:#5600A0"/>
					<stop  offset="0.2557" style="stop-color:#500099"/>
					<stop  offset="0.615" style="stop-color:#410087"/>
					<stop  offset="1" style="stop-color:#2A006C"/>
				</linearGradient>
				<path class="st3" d="M473.1,218.4c-0.9,0-2.4-0.6-2.7-2.7c-1.5-12.5-5.2-17.4-14.8-19.3c-1.4-0.3-2.4-1.6-2.4-3.1s1-2.8,2.4-3.1
					c9.4-1.9,12.9-6.6,14.4-19.2c0.2-1.6,1.4-2.8,2.9-2.8s2.8,1.2,2.9,2.8c1.5,12.6,5,17.3,14.4,19.2c1.4,0.3,2.4,1.6,2.4,3.1
					s-1,2.8-2.4,3.1c-9.4,1.9-13.1,6.7-14.6,19.2C475.6,217.7,474.2,218.4,473.1,218.4z M472.8,215.6L472.8,215.6L472.8,215.6z
					 M461.9,193.3c5.6,2.2,9.2,6.1,11.3,12.3c2.1-6.2,5.6-10.1,11.2-12.3c-5.7-2.3-9.2-6.3-11.2-13
					C471.1,187.1,467.6,191.1,461.9,193.3z"/>
			</g>
		</g>
		<g>
			<g>
				
					<linearGradient id="SVGID_5_" gradientUnits="userSpaceOnUse" x1="4.8224" y1="-94.6098" x2="41.3424" y2="-94.6098" gradientTransform="matrix(1 0 0 1 0 288)">
					<stop  offset="0" style="stop-color:#5600A0"/>
					<stop  offset="0.2557" style="stop-color:#500099"/>
					<stop  offset="0.615" style="stop-color:#410087"/>
					<stop  offset="1" style="stop-color:#2A006C"/>
				</linearGradient>
				<path class="st4" d="M23.2,216.9c-0.2,0-1-0.1-1.2-1.4c-1.6-13.1-5.7-18.5-16-20.6c-0.7-0.1-1.2-0.8-1.2-1.6s0.5-1.5,1.2-1.6
					c10.1-2,14-7.2,15.6-20.5l0,0c0.1-0.8,0.7-1.4,1.4-1.4l0,0c0.8,0,1.3,0.6,1.4,1.4c1.6,13.3,5.5,18.5,15.6,20.5
					c0.7,0.1,1.2,0.8,1.2,1.6s-0.5,1.5-1.2,1.6c-10.1,2-14.2,7.4-15.8,20.5C24.2,216.8,23.5,216.9,23.2,216.9z M6.5,193.3
					c9.9,2,14.7,7.2,16.7,18.6c2-11.5,6.7-16.6,16.5-18.6l0,0c-10.3-2.1-14.8-7.5-16.6-20.2C21.3,185.8,16.8,191.2,6.5,193.3
					L6.5,193.3z"/>
				
					<linearGradient id="SVGID_6_" gradientUnits="userSpaceOnUse" x1="3.7924" y1="-94.6098" x2="42.3923" y2="-94.6098" gradientTransform="matrix(1 0 0 1 0 288)">
					<stop  offset="0" style="stop-color:#5600A0"/>
					<stop  offset="0.2557" style="stop-color:#500099"/>
					<stop  offset="0.615" style="stop-color:#410087"/>
					<stop  offset="1" style="stop-color:#2A006C"/>
				</linearGradient>
				<path class="st5" d="M23.2,217.9c-0.9,0-2-0.6-2.2-2.3c-1.5-12.8-5.3-17.7-15.1-19.7c-1.2-0.2-2-1.3-2-2.6s0.8-2.4,2-2.6
					c9.7-2,13.3-6.7,14.8-19.6c0.2-1.4,1.2-2.3,2.5-2.3s2.3,1,2.5,2.3c1.5,12.9,5.1,17.6,14.8,19.6c1.2,0.2,2,1.3,2,2.6
					s-0.8,2.4-2,2.6c-9.7,2-13.5,6.9-15,19.6C25.2,217.3,24.1,217.9,23.2,217.9z M23.2,215.9L23.2,215.9L23.2,215.9z M22.7,212.9
					c0.1,0.8,0.2,1.7,0.4,2.5c0,0.3,0.1,0.4,0.1,0.5c0,0,0.1-0.2,0.2-0.5c0.1-0.8,0.2-1.7,0.3-2.5c-0.1,0.1-0.3,0.1-0.5,0.1
					C23,213,22.9,213,22.7,212.9z M10.5,193.3c6.6,2.2,10.6,6.6,12.7,14c2.1-7.4,6-11.7,12.5-14c-6.8-2.3-10.6-6.7-12.6-14.7
					C21.1,186.6,17.3,191,10.5,193.3z M23.1,170.8c-0.3,0-0.4,0.3-0.4,0.5c0,0.3-0.1,0.6-0.1,0.9c0.2-0.1,0.3-0.1,0.5-0.1l0,0
					c0.2,0,0.4,0,0.5,0.1c0-0.3-0.1-0.6-0.1-0.9C23.5,171.1,23.4,170.8,23.1,170.8z"/>
			</g>
			<g>
				
					<linearGradient id="SVGID_7_" gradientUnits="userSpaceOnUse" x1="4.3524" y1="-94.6598" x2="41.8424" y2="-94.6598" gradientTransform="matrix(1 0 0 1 0 288)">
					<stop  offset="0" style="stop-color:#5600A0"/>
					<stop  offset="0.2557" style="stop-color:#500099"/>
					<stop  offset="0.615" style="stop-color:#410087"/>
					<stop  offset="1" style="stop-color:#2A006C"/>
				</linearGradient>
				<path class="st6" d="M23.2,217.4c-0.2,0-1.4-0.1-1.6-1.8C20.1,202.7,16,197.4,6,195.4c-0.9-0.2-1.6-1-1.6-2.1s0.6-1.9,1.6-2.1
					c9.9-2,13.7-7,15.2-20.1c0.1-1.1,0.9-1.9,1.9-1.9s1.8,0.8,1.9,1.9c1.5,13,5.4,18.1,15.2,20.1c0.9,0.2,1.6,1,1.6,2.1
					c0,1-0.6,1.9-1.6,2.1c-9.9,2-13.9,7.2-15.4,20.1C24.7,217.3,23.5,217.4,23.2,217.4z M23.1,170.3c-0.5,0-0.9,0.4-1,1
					c-1.6,13.5-5.6,18.8-16,20.9c-0.5,0.1-0.8,0.6-0.8,1.1s0.3,1,0.8,1.1c10.5,2.1,14.8,7.6,16.4,21c0.1,0.9,0.5,1,0.7,1
					s0.6-0.1,0.7-1c1.6-13.4,5.8-18.8,16.2-20.9c0.5-0.1,0.8-0.6,0.8-1.1s-0.3-1-0.8-1.1c-10.4-2.1-14.4-7.4-16-20.9
					C24,170.7,23.6,170.3,23.1,170.3z M23.2,212.5c-0.2,0-0.4-0.2-0.5-0.4c-1.9-11.1-6.5-16.2-16.3-18.2c-0.2,0-0.4-0.2-0.4-0.5l0,0
					c0-0.2,0.2-0.4,0.4-0.5c10.2-2.1,14.4-7.3,16.2-19.8c0-0.2,0.2-0.4,0.5-0.4c0.2,0,0.4,0.2,0.5,0.4c1.8,12.5,6,17.7,16.2,19.8
					c0.2,0,0.4,0.2,0.4,0.5s-0.2,0.4-0.4,0.5c-9.7,2-14.2,7.1-16.1,18.2C23.6,212.3,23.5,212.5,23.2,212.5L23.2,212.5z M8.6,193.3
					c8.2,2.2,12.5,6.9,14.6,16.2c2.1-9.2,6.3-14,14.4-16.2c-8.4-2.2-12.6-7.2-14.5-17.3C21.2,186.1,17,191.1,8.6,193.3z"/>
				
					<linearGradient id="SVGID_8_" gradientUnits="userSpaceOnUse" x1="3.3124" y1="-94.6598" x2="42.8524" y2="-94.6598" gradientTransform="matrix(1 0 0 1 0 288)">
					<stop  offset="0" style="stop-color:#5600A0"/>
					<stop  offset="0.2557" style="stop-color:#500099"/>
					<stop  offset="0.615" style="stop-color:#410087"/>
					<stop  offset="1" style="stop-color:#2A006C"/>
				</linearGradient>
				<path class="st7" d="M23.2,218.4c-0.9,0-2.4-0.6-2.7-2.7c-1.5-12.5-5.2-17.4-14.8-19.3c-1.4-0.3-2.4-1.6-2.4-3.1s1-2.8,2.4-3.1
					c9.4-1.9,12.9-6.6,14.4-19.2c0.2-1.6,1.4-2.8,2.9-2.8s2.8,1.2,2.9,2.8c1.5,12.6,5,17.3,14.4,19.2c1.4,0.3,2.4,1.6,2.4,3.1
					s-1,2.8-2.4,3.1c-9.4,1.9-13.1,6.7-14.6,19.2C25.7,217.7,24.3,218.4,23.2,218.4z M11.9,193.3c5.6,2.2,9.2,6.1,11.3,12.3
					c2.1-6.2,5.6-10.1,11.1-12.3c-5.7-2.3-9.2-6.3-11.2-13C21.1,187,17.6,191,11.9,193.3z"/>
			</g>
		</g>
	</g>
	<g>
		
			<linearGradient id="SVGID_9_" gradientUnits="userSpaceOnUse" x1="133.8524" y1="-210.8098" x2="157.0323" y2="-210.8098" gradientTransform="matrix(1 0 0 1 0 288)">
			<stop  offset="0" style="stop-color:#5600A0"/>
			<stop  offset="0.2729" style="stop-color:#4E0097"/>
			<stop  offset="0.7154" style="stop-color:#3A007F"/>
			<stop  offset="1" style="stop-color:#2A006C"/>
		</linearGradient>
		<path class="st8" d="M133.9,77.7c7,1.4,10.3,5,11.6,13c1.4-8,4.6-11.6,11.5-13l0,0c-7.2-1.5-10.3-5.2-11.6-14.1
			C144.2,72.5,141.1,76.3,133.9,77.7L133.9,77.7z"/>
		
			<linearGradient id="SVGID_10_" gradientUnits="userSpaceOnUse" x1="339.6124" y1="-210.8098" x2="362.8124" y2="-210.8098" gradientTransform="matrix(1 0 0 1 0 288)">
			<stop  offset="0" style="stop-color:#5600A0"/>
			<stop  offset="0.2729" style="stop-color:#4E0097"/>
			<stop  offset="0.7154" style="stop-color:#3A007F"/>
			<stop  offset="1" style="stop-color:#2A006C"/>
		</linearGradient>
		<path class="st9" d="M339.7,77.7c7,1.4,10.3,5,11.7,13c1.4-8,4.7-11.6,11.5-13l0,0c-7.2-1.5-10.3-5.2-11.6-14.1
			C350,72.5,346.9,76.3,339.7,77.7L339.7,77.7z"/>
		
			<linearGradient id="SVGID_11_" gradientUnits="userSpaceOnUse" x1="236.4524" y1="-272.8098" x2="259.6524" y2="-272.8098" gradientTransform="matrix(1 0 0 1 0 288)">
			<stop  offset="0" style="stop-color:#5600A0"/>
			<stop  offset="0.2729" style="stop-color:#4E0097"/>
			<stop  offset="0.7154" style="stop-color:#3A007F"/>
			<stop  offset="1" style="stop-color:#2A006C"/>
		</linearGradient>
		<path class="st10" d="M236.5,15.7c7,1.4,10.3,5,11.7,13c1.4-8,4.7-11.6,11.5-13l0,0c-7.2-1.5-10.3-5.2-11.6-14.1
			C246.8,10.4,243.7,14.2,236.5,15.7C236.5,15.6,236.5,15.6,236.5,15.7z"/>
		<g>
			<g>
				<g>
					
						<linearGradient id="SVGID_12_" gradientUnits="userSpaceOnUse" x1="109.0252" y1="-137.7442" x2="386.9154" y2="-137.7442" gradientTransform="matrix(1 0 0 1 0 288)">
						<stop  offset="0" style="stop-color:#5600A0"/>
						<stop  offset="0.2729" style="stop-color:#4E0097"/>
						<stop  offset="0.7154" style="stop-color:#3A007F"/>
						<stop  offset="1" style="stop-color:#2A006C"/>
					</linearGradient>
					<path class="st11" d="M310.9,228.8c-0.7,0-1.3,0-2,0c-22.2-0.4-43.2-7.6-60.9-20.7c-17.7,13.2-38.7,20.3-60.9,20.7
						c-0.6,0-1.3,0-2,0c-28.6,0-55.3-11.2-75.3-31.8c-0.9-1-1-2.5-0.1-3.5c19.4-21.4,47.1-34,76.1-34.5c0.4,0,0.8,0,1.2,0
						c-0.5-0.8-1-1.7-1.5-2.6c-14.3-25.2-17.6-55.4-9.1-83c0.4-1.3,1.7-2,3-1.7c28.5,6.9,52.2,24.7,66.7,50.2
						c0.7,1.2,1.3,2.3,1.9,3.5c0.6-1.1,1.2-2.3,1.9-3.4c14.5-25.5,38.2-43.4,66.7-50.2c1.3-0.3,2.6,0.4,3,1.7
						c8.5,27.6,5.2,57.9-9.1,83c-0.5,0.9-1,1.8-1.5,2.6c0.4,0,0.8,0,1.2,0c29.4,0.5,56.4,12.8,76.1,34.5c0.9,1,0.9,2.5-0.1,3.5
						C366.2,217.6,339.6,228.8,310.9,228.8z M115.2,195.2c19.3,18.9,44.8,29,71.9,28.5c21.7-0.4,42.3-7.6,59.4-20.8
						c0.9-0.7,2.2-0.7,3.1,0c17.1,13.2,37.7,20.4,59.4,20.8c27.2,0.5,52.6-9.6,71.9-28.5c-18.6-19.6-43.7-30.6-70.8-31.1
						c-1.5,0-3.6,0-5.6,0c-0.9,0-1.8-0.5-2.3-1.3s-0.4-1.9,0.1-2.6c1.3-1.8,2.5-3.9,3.9-6.3c13.2-23.2,16.6-51.1,9.4-76.7
						c-26.1,7-47.8,23.6-61.2,47.2c-1.5,2.6-2.8,5.2-4,7.7c-0.4,0.9-1.3,1.5-2.3,1.5l0,0c-1,0-1.9-0.6-2.3-1.5c-1.2-2.5-2.5-5-4-7.7
						c-13.4-23.6-35.1-40.3-61.2-47.2c-7.2,25.7-3.9,53.5,9.4,76.8c1.4,2.4,2.6,4.4,3.9,6.3c0.5,0.8,0.6,1.8,0.1,2.6
						c-0.5,0.8-1.4,1.3-2.3,1.3c-1.6-0.1-3.4-0.1-5.7,0C159.3,164.6,133.6,175.9,115.2,195.2z"/>
				</g>
			</g>
			<g>
				
					<linearGradient id="SVGID_13_" gradientUnits="userSpaceOnUse" x1="213.1523" y1="-157.9973" x2="282.9523" y2="-157.9973" gradientTransform="matrix(1 0 0 1 0 288)">
					<stop  offset="0" style="stop-color:#5600A0"/>
					<stop  offset="0.2729" style="stop-color:#4E0097"/>
					<stop  offset="0.7154" style="stop-color:#3A007F"/>
					<stop  offset="1" style="stop-color:#2A006C"/>
				</linearGradient>
				<path class="st12" d="M248.1,207.4c-0.6,0-1.2-0.2-1.7-0.7c-2.4-2.3-4.7-4.6-6.7-6.9c-13.4-15.1-22.1-33.6-25.2-53.5
					c-0.8-5.3-1.3-10.9-1.3-16.4c0-28.9,12.1-56.9,33.1-76.7c1-0.9,2.5-0.9,3.5,0C270.9,73,283,101,283,129.9c0,5.5-0.4,11-1.3,16.4
					c-3.1,19.9-11.8,38.4-25.2,53.5c-2.2,2.4-4.4,4.8-6.7,6.9C249.3,207.2,248.7,207.4,248.1,207.4z M248.1,58.7
					c-19.3,19-29.8,44.2-29.8,71.4c0,5.2,0.4,10.5,1.2,15.6c2.9,18.9,11.2,36.5,24,50.9c1.4,1.6,3,3.3,4.6,4.9
					c1.6-1.5,3.1-3.2,4.6-4.9c12.8-14.4,21.1-32,24-50.9c0.8-5.1,1.2-10.3,1.2-15.6C277.9,102.9,267.4,77.6,248.1,58.7z"/>
				<g>
					
						<linearGradient id="SVGID_14_" gradientUnits="userSpaceOnUse" x1="122.7834" y1="-120.2892" x2="373.1213" y2="-120.2892" gradientTransform="matrix(1 0 0 1 0 288)">
						<stop  offset="0" style="stop-color:#5600A0"/>
						<stop  offset="0.2729" style="stop-color:#4E0097"/>
						<stop  offset="0.7154" style="stop-color:#3A007F"/>
						<stop  offset="1" style="stop-color:#2A006C"/>
					</linearGradient>
					<path class="st13" d="M224.9,211.4c-17.7,0-35.3-4.5-51.1-13.3c-25.3-14.1-43.9-38.2-50.9-66.2c-0.3-1.3,0.4-2.6,1.7-3
						c27.5-8.8,57.9-5.8,83.1,8.3c3.7,2,7.3,4.4,10.7,6.8c0.5,0.4,0.9,1,1,1.6c2.9,18.9,11.2,36.5,24,50.9c1.4,1.6,3,3.3,4.6,4.9
						c1.6-1.5,3.1-3.2,4.6-4.9c12.8-14.4,21.1-32,24-50.9c0.1-0.7,0.5-1.3,1-1.6c3.4-2.5,7-4.8,10.7-6.8c25.3-14,55.6-17.1,83.1-8.3
						c1.3,0.4,2,1.7,1.7,3c-7.1,28-25.6,52.2-50.9,66.2c-22.7,12.6-49,16.4-74.2,10.7C240.4,210.5,232.7,211.4,224.9,211.4z
						 M128.4,133c7.2,25.7,24.5,47.7,47.9,60.7c20.7,11.5,44.6,15.3,67.7,10.8c-1.5-1.5-3-3.1-4.3-4.6c-13.2-14.8-21.8-32.9-25-52.4
						c-3-2.1-6.1-4.1-9.4-5.9C181.6,128.3,154.4,125.3,128.4,133z M252.2,204.5c23.1,4.5,47,0.7,67.7-10.8
						c23.4-13,40.7-35,47.9-60.7c-25.9-7.6-53.1-4.6-76.9,8.6c-3.2,1.8-6.4,3.8-9.4,5.9c-3.2,19.5-11.9,37.6-25,52.4
						C255.1,201.5,253.6,203,252.2,204.5z"/>
				</g>
			</g>
		</g>
		
			<linearGradient id="SVGID_15_" gradientUnits="userSpaceOnUse" x1="229.8878" y1="-43.3098" x2="266.18" y2="-43.3098" gradientTransform="matrix(1 0 0 1 0 288)">
			<stop  offset="0" style="stop-color:#5600A0"/>
			<stop  offset="0.2729" style="stop-color:#4E0097"/>
			<stop  offset="0.7154" style="stop-color:#3A007F"/>
			<stop  offset="1" style="stop-color:#2A006C"/>
		</linearGradient>
		<path class="st14" d="M248.1,269.6c-0.6,0-1.2-0.2-1.7-0.7c-7.3-6.9-13-15.5-16.3-25c-0.3-1,0-2.1,0.7-2.8
			c5.1-4.3,9.3-9.5,12.7-15.4c0.9-1.5,1.6-3,2.3-4.5c0.4-0.9,1.3-1.5,2.3-1.5l0,0c1,0,1.9,0.6,2.3,1.5c0.7,1.4,1.4,2.9,2.3,4.5
			c3.3,5.9,7.6,11,12.7,15.4c0.8,0.7,1.1,1.8,0.7,2.8c-3.3,9.5-9,18.1-16.3,25C249.3,269.4,248.7,269.6,248.1,269.6z M235.4,243.8
			c2.8,7.3,7.2,14,12.7,19.7c5.5-5.6,9.8-12.4,12.7-19.7c-4.9-4.5-9.1-9.7-12.5-15.6c-0.1-0.1-0.1-0.2-0.2-0.4
			c-0.1,0.1-0.1,0.2-0.2,0.3C244.6,234.1,240.4,239.4,235.4,243.8z"/>
	</g>
	<g>
		<g>
			
				<linearGradient id="SVGID_16_" gradientUnits="userSpaceOnUse" x1="75.8524" y1="56.173" x2="335.9033" y2="56.173" gradientTransform="matrix(1 0 0 1 0 288)">
				<stop  offset="0" style="stop-color:#5600A0"/>
				<stop  offset="0.2729" style="stop-color:#4E0097"/>
				<stop  offset="0.7154" style="stop-color:#3A007F"/>
				<stop  offset="1" style="stop-color:#2A006C"/>
			</linearGradient>
			<path class="st15" d="M209.9,383.4l-2.6-3.4c5-3.7,32.2-15.2,44.6-16c4.2-0.2,10.8-0.4,18.4-0.5c14.2-0.2,31.8-0.5,38.6-1.9
				c3-0.6,6.1-1.1,9.2-1.6c4.9-0.8,12.2-2,13.6-3.2c0-1.2-0.5-4-2.8-6.8c-1.8-2.3-5.4-5.1-11.7-5.5c-3.6-0.3-9.4-0.4-16.1-0.6
				c-17.9-0.5-45-1.2-66.2-4.8c-15.1-2.6-29.3-10.8-41.8-17.9c-11.9-6.8-23-11.3-32.9-12c-8.7-0.6-25.4,6.7-37,11.1
				c-15.8,6-29.2,7.5-47.3,4.9l0.6-4.2c17,2.5,29.9,1.1,45.2-4.7c12.1-4.6,29.1-12,38.8-11.4c10.9,0.7,22.5,5.5,34.7,12.5
				c12.8,7.3,26,14.9,40.4,17.4c20.9,3.6,47.8,4.3,65.6,4.8c7,0.2,12.5,0.3,16.3,0.6c7.8,0.6,12.3,4.2,14.7,7.1
				c3,3.7,4,7.9,3.7,10.3c-0.5,3.7-5.9,4.8-17.1,6.6c-3,0.5-6.1,1-9,1.6c-7.2,1.5-24.3,1.8-39.4,2c-7.6,0.1-14.2,0.2-18.2,0.5
				C240.8,369,214.5,380,209.9,383.4z"/>
			
				<linearGradient id="SVGID_17_" gradientUnits="userSpaceOnUse" x1="86.7524" y1="92.6667" x2="403.139" y2="92.6667" gradientTransform="matrix(1 0 0 1 0 288)">
				<stop  offset="0" style="stop-color:#5600A0"/>
				<stop  offset="0.2729" style="stop-color:#4E0097"/>
				<stop  offset="0.7154" style="stop-color:#3A007F"/>
				<stop  offset="1" style="stop-color:#2A006C"/>
			</linearGradient>
			<path class="st16" d="M229.5,421.4c-12.4-1.8-24.1-5.3-33.1-10.1c-59.3-32-91-33.5-108.5-28.6l-1.1-4.1
				c16.9-4.7,37.3-1.9,63.8,7.3c21.8,7.6,40.8,17.8,47.9,21.7c15.1,8.2,38.6,12.3,59.7,10.6c6.9-0.6,14.8-1.4,22.5-2.3
				c15-1.6,29.1-3.2,35.5-2.6c0.7,0.1,4.4-0.7,20-13.4c10.1-8.2,22.1-18.7,32.6-28c13.7-12.1,22.3-19.6,25.4-21.2
				c3.7-2,4.8-3.9,4.6-4.9c-0.1-0.8-1.1-1.4-2.4-1.6c-0.5-0.1-1.1-0.2-1.9-0.3c-5.9-1.1-19.8-3.6-32,5.5c-6.3,4.7-14,11-21.5,17.2
				c-9.6,7.8-18.6,15.3-23.3,18.1c-9,5.5-58.2,5-67.3,0.6c-8.9-4.3-15-14.1-15.2-14.5l3.7-2.2c0,0.1,5.7,9.2,13.5,12.9
				c7.6,3.7,55.6,4.3,63.2-0.4c4.5-2.7,13.4-10.1,22.8-17.8c7.5-6.2,15.3-12.5,21.7-17.3c13.6-10.2,28.8-7.5,35.3-6.3
				c0.7,0.1,1.3,0.2,1.7,0.3c3.2,0.5,5.5,2.5,6,5.1c0.3,1.6,0.2,5.7-6.8,9.4c-2.8,1.5-13.4,10.8-24.6,20.7
				c-10.6,9.3-22.6,19.9-32.8,28.2c-16,12.9-20.5,14.5-23,14.2c-5.9-0.5-20.5,1-34.6,2.6c-7.7,0.8-15.7,1.7-22.6,2.3
				C249,423.1,239.1,422.8,229.5,421.4z"/>
			
				<linearGradient id="SVGID_18_" gradientUnits="userSpaceOnUse" x1="258.5131" y1="28.2854" x2="289.2524" y2="28.2854" gradientTransform="matrix(1 0 0 1 0 288)">
				<stop  offset="0" style="stop-color:#5600A0"/>
				<stop  offset="0.2729" style="stop-color:#4E0097"/>
				<stop  offset="0.7154" style="stop-color:#3A007F"/>
				<stop  offset="1" style="stop-color:#2A006C"/>
			</linearGradient>
			<path class="st17" d="M259.7,340.3c-1.4-7.9-2.9-33.9,4.7-42.9c4.1-4.9,9.4-7.8,14-7.6c2.2,0.1,4,0.8,5,2.2
				c1,1.3,1.2,4.2,1.9,16.5c0.6,10.7,1.7,28.5,4,31.6l-3.4,2.6c-2.9-3.8-3.9-17-4.9-33.9c-0.3-5.9-0.8-12.6-1.2-14.2
				c-0.2-0.1-0.7-0.4-1.7-0.4c-2.6,0-6.7,1.6-10.5,6.1c-5.7,6.7-5.4,29.6-3.7,39.4L259.7,340.3z M279.8,294.3L279.8,294.3
				L279.8,294.3z"/>
			
				<linearGradient id="SVGID_19_" gradientUnits="userSpaceOnUse" x1="319.7625" y1="32.9721" x2="353.3625" y2="32.9721" gradientTransform="matrix(1 0 0 1 0 288)">
				<stop  offset="0" style="stop-color:#5600A0"/>
				<stop  offset="0.2729" style="stop-color:#4E0097"/>
				<stop  offset="0.7154" style="stop-color:#3A007F"/>
				<stop  offset="1" style="stop-color:#2A006C"/>
			</linearGradient>
			<path class="st18" d="M337.9,368.8l-3.8-2c6.1-11.7,12.1-32.6,14-48.7c1.1-9,0.9-18.2,0.8-25.6c-0.1-5.6-0.2-10,0.3-13
				c0.2-1.4-0.4-1.8-1-2c-2.4-0.8-7.6,1-10.7,6.5c-4.2,7.3-6.3,26.9-7.5,37.4c-0.3,2.6-0.5,4.7-0.7,6c-1,7.1-5.3,16.2-5.5,16.6
				l-3.9-1.8c0-0.1,4.2-8.9,5.1-15.4c0.2-1.3,0.4-3.3,0.7-5.9c1.2-11.6,3.3-31,8-39c4.2-7.2,11.3-10,15.8-8.4c2.8,1,4.3,3.5,3.8,6.7
				c-0.4,2.7-0.3,7.2-0.2,12.4c0.1,7.5,0.3,16.8-0.8,26.2C350.3,335.2,344.1,356.8,337.9,368.8z"/>
			
				<linearGradient id="SVGID_20_" gradientUnits="userSpaceOnUse" x1="287.1523" y1="87.5402" x2="311.0923" y2="87.5402" gradientTransform="matrix(1 0 0 1 0 288)">
				<stop  offset="0" style="stop-color:#5600A0"/>
				<stop  offset="0.2729" style="stop-color:#4E0097"/>
				<stop  offset="0.7154" style="stop-color:#3A007F"/>
				<stop  offset="1" style="stop-color:#2A006C"/>
			</linearGradient>
			<path class="st19" d="M287.6,388.6v-4.3c-0.2,0-0.4,0.1-0.4,0.1c2.3-0.9,14.7-14,20.5-22l3.5,2.5c-2.8,3.8-7.6,9.5-12.3,14.5
				C290.2,388.6,288.6,388.6,287.6,388.6z"/>
			
				<linearGradient id="SVGID_21_" gradientUnits="userSpaceOnUse" x1="292.9065" y1="21.1872" x2="324.8423" y2="21.1872" gradientTransform="matrix(1 0 0 1 0 288)">
				<stop  offset="0" style="stop-color:#5600A0"/>
				<stop  offset="0.2729" style="stop-color:#4E0097"/>
				<stop  offset="0.7154" style="stop-color:#3A007F"/>
				<stop  offset="1" style="stop-color:#2A006C"/>
			</linearGradient>
			<path class="st20" d="M294.8,341.5c0-0.2,0.4-17.3-1.6-34.5c-2.1-18.2,8-28.3,13.2-30.2c1.5-0.6,2.7-0.2,3.3,0.2
				c2.1,1.3,2.5,4.6,2.9,9.5c0.3,3,0.6,6.3,1.4,9.8c0.7,3.2,2,7.2,3.5,11.9c3.1,9.8,7,21.9,7.3,32.5l-4.3,0.1
				c-0.3-10-4-21.8-7.1-31.3c-1.5-4.8-2.8-8.9-3.6-12.2c-0.8-3.8-1.2-7.4-1.5-10.3c-0.2-2.2-0.5-4.8-0.9-5.9
				c-3,1.5-12,9.2-10.2,25.6c2,17.5,1.6,34.9,1.6,35.1L294.8,341.5z"/>
			
				<linearGradient id="SVGID_22_" gradientUnits="userSpaceOnUse" x1="261.9523" y1="87.7903" x2="287.3523" y2="87.7903" gradientTransform="matrix(1 0 0 1 0 288)">
				<stop  offset="0" style="stop-color:#5600A0"/>
				<stop  offset="0.2729" style="stop-color:#4E0097"/>
				<stop  offset="0.7154" style="stop-color:#3A007F"/>
				<stop  offset="1" style="stop-color:#2A006C"/>
			</linearGradient>
			<path class="st21" d="M264.7,387.3L262,384c7.5-6.2,20.1-17.1,21.8-19.8l3.6,2.3C284.7,370.7,266.8,385.6,264.7,387.3z"/>
		</g>
	</g>
</g>
</svg>
