<?xml version="1.0" encoding="utf-8"?>
<!-- Generator: Adobe Illustrator 24.0.1, SVG Export Plug-In . SVG Version: 6.00 Build 0)  -->
<svg version="1.1" id="Слой_1" xmlns="http://www.w3.org/2000/svg" xmlns:xlink="http://www.w3.org/1999/xlink" x="0px" y="0px"
	 viewBox="0 0 1080 1080" style="enable-background:new 0 0 1080 1080;" xml:space="preserve">
<style type="text/css">
	.st0{fill:url(#SVGID_1_);}
	.st1{fill:url(#SVGID_2_);}
	.st2{fill:url(#SVGID_3_);}
	.st3{fill:url(#SVGID_4_);}
	.st4{fill:url(#SVGID_5_);}
	.st5{fill:url(#SVGID_6_);}
	.st6{fill:url(#SVGID_7_);}
	.st7{fill:url(#SVGID_8_);}
	.st8{fill:url(#SVGID_9_);}
	.st9{fill:url(#SVGID_10_);}
	.st10{fill:url(#SVGID_11_);}
	.st11{fill:url(#SVGID_12_);}
	.st12{fill:url(#SVGID_13_);}
	.st13{fill:url(#SVGID_14_);}
	.st14{fill:url(#SVGID_15_);}
	.st15{fill:url(#SVGID_16_);}
	.st16{fill:url(#SVGID_17_);}
	.st17{fill:url(#SVGID_18_);}
	.st18{fill:url(#SVGID_19_);}
	.st19{fill:url(#SVGID_20_);}
	.st20{fill:url(#SVGID_21_);}
	.st21{fill:url(#SVGID_22_);}
</style>
<g>
	<g>
		<g>
			<g>
				
					<linearGradient id="SVGID_1_" gradientUnits="userSpaceOnUse" x1="746.71" y1="579.43" x2="783.23" y2="579.43" gradientTransform="matrix(1 0 0 -1 0 1080)">
					<stop  offset="0" style="stop-color:#5600A0"/>
					<stop  offset="0.2557" style="stop-color:#500099"/>
					<stop  offset="0.615" style="stop-color:#410087"/>
					<stop  offset="1" style="stop-color:#2A006C"/>
				</linearGradient>
				<path class="st0" d="M765,524.1c-0.2,0-1-0.1-1.2-1.4c-1.6-13.1-5.7-18.5-16-20.6c-0.7-0.1-1.2-0.8-1.2-1.6s0.5-1.5,1.2-1.6
					c10.1-2,14-7.2,15.6-20.5l0,0c0.1-0.8,0.7-1.4,1.4-1.4l0,0c0.8,0,1.3,0.6,1.4,1.4c1.6,13.3,5.5,18.5,15.6,20.5
					c0.7,0.1,1.2,0.8,1.2,1.6s-0.5,1.5-1.2,1.6c-10.1,2-14.2,7.4-15.8,20.5C766.1,524,765.3,524.1,765,524.1z M748.4,500.6
					c9.9,2,14.7,7.2,16.7,18.6c2-11.5,6.7-16.6,16.5-18.6v0c-10.3-2.1-14.8-7.5-16.6-20.2C763.2,493.1,758.7,498.4,748.4,500.6
					C748.4,500.5,748.4,500.5,748.4,500.6z"/>
				
					<linearGradient id="SVGID_2_" gradientUnits="userSpaceOnUse" x1="745.6799" y1="579.4301" x2="784.2799" y2="579.4301" gradientTransform="matrix(1 0 0 -1 0 1080)">
					<stop  offset="0" style="stop-color:#5600A0"/>
					<stop  offset="0.2557" style="stop-color:#500099"/>
					<stop  offset="0.615" style="stop-color:#410087"/>
					<stop  offset="1" style="stop-color:#2A006C"/>
				</linearGradient>
				<path class="st1" d="M765,525.2c-0.9,0-2-0.6-2.2-2.3c-1.5-12.8-5.3-17.7-15.2-19.7c-1.2-0.2-2-1.3-2-2.6s0.8-2.4,2-2.6
					c9.7-2,13.3-6.7,14.8-19.6c0.2-1.4,1.2-2.3,2.5-2.3c1.3,0,2.3,1,2.5,2.3c1.5,12.9,5.1,17.6,14.8,19.6c1.2,0.2,2,1.3,2,2.6
					s-0.8,2.4-2,2.6c-9.7,2-13.5,6.9-15,19.6C767.1,524.5,766,525.2,765,525.2z M765.1,523.1L765.1,523.1L765.1,523.1z M764.5,520.1
					c0.1,0.8,0.2,1.7,0.3,2.5c0,0.3,0.1,0.4,0.2,0.5c0,0,0.1-0.2,0.2-0.5c0.1-0.8,0.2-1.7,0.3-2.5c-0.2,0.1-0.3,0.1-0.5,0.1l0,0
					C764.9,520.2,764.7,520.2,764.5,520.1z M752.4,500.6c6.6,2.2,10.6,6.6,12.7,14c2.1-7.4,6-11.7,12.5-14
					c-6.8-2.3-10.6-6.7-12.6-14.7C763,493.9,759.2,498.3,752.4,500.6z M765,478c-0.3,0-0.4,0.3-0.4,0.5c0,0.3-0.1,0.6-0.1,0.9
					c0.2-0.1,0.3-0.1,0.5-0.1l0,0c0.2,0,0.4,0,0.5,0.1c0-0.3-0.1-0.6-0.1-0.9C765.4,478.3,765.2,478,765,478z"/>
			</g>
			<g>
				
					<linearGradient id="SVGID_3_" gradientUnits="userSpaceOnUse" x1="746.2199" y1="579.4301" x2="783.7099" y2="579.4301" gradientTransform="matrix(1 0 0 -1 0 1080)">
					<stop  offset="0" style="stop-color:#5600A0"/>
					<stop  offset="0.2557" style="stop-color:#500099"/>
					<stop  offset="0.615" style="stop-color:#410087"/>
					<stop  offset="1" style="stop-color:#2A006C"/>
				</linearGradient>
				<path class="st2" d="M765,524.6c-0.2,0-1.4-0.1-1.7-1.8c-1.5-12.9-5.6-18.2-15.6-20.2c-0.9-0.2-1.6-1-1.6-2.1s0.7-1.9,1.6-2.1
					c9.8-2,13.7-7,15.2-20.1c0.1-1.1,0.9-1.9,1.9-1.9s1.8,0.8,1.9,1.9c1.5,13,5.4,18.1,15.2,20.1c0.9,0.2,1.6,1,1.6,2.1
					c0,1-0.7,1.9-1.6,2.1c-9.9,2-13.9,7.2-15.4,20.1C766.5,524.5,765.3,524.6,765,524.6z M765,477.5c-0.5,0-0.9,0.4-1,1
					c-1.6,13.5-5.6,18.8-16,20.9c-0.5,0.1-0.8,0.6-0.8,1.1s0.3,1,0.8,1.1c10.5,2.1,14.8,7.6,16.3,21c0.1,0.9,0.5,1,0.7,1
					c0.2,0,0.6-0.1,0.7-1c1.6-13.4,5.8-18.8,16.2-20.9c0.5-0.1,0.8-0.6,0.8-1.1s-0.3-1-0.8-1.1c-10.4-2.1-14.4-7.4-16-20.9
					C765.9,477.9,765.5,477.5,765,477.5z M765.1,519.7c-0.2,0-0.4-0.2-0.5-0.4c-1.9-11.1-6.5-16.2-16.3-18.2c-0.2,0-0.4-0.2-0.4-0.5
					v0c0-0.2,0.2-0.4,0.4-0.5c10.2-2.1,14.4-7.3,16.2-19.8c0-0.2,0.2-0.4,0.5-0.4c0.2,0,0.4,0.2,0.5,0.4c1.8,12.5,6,17.7,16.2,19.8
					c0.2,0,0.4,0.2,0.4,0.5s-0.2,0.4-0.4,0.5c-9.7,2-14.2,7.1-16.1,18.2C765.5,519.5,765.3,519.7,765.1,519.7L765.1,519.7z
					 M750.5,500.5c8.2,2.2,12.5,6.9,14.6,16.2c2.1-9.2,6.3-14,14.4-16.2c-8.4-2.2-12.6-7.2-14.5-17.3
					C763,493.4,758.8,498.3,750.5,500.5z"/>
				
					<linearGradient id="SVGID_4_" gradientUnits="userSpaceOnUse" x1="745.2" y1="579.435" x2="784.7399" y2="579.435" gradientTransform="matrix(1 0 0 -1 0 1080)">
					<stop  offset="0" style="stop-color:#5600A0"/>
					<stop  offset="0.2557" style="stop-color:#500099"/>
					<stop  offset="0.615" style="stop-color:#410087"/>
					<stop  offset="1" style="stop-color:#2A006C"/>
				</linearGradient>
				<path class="st3" d="M765,525.6c-0.9,0-2.4-0.6-2.7-2.7c-1.5-12.5-5.2-17.4-14.8-19.3c-1.4-0.3-2.4-1.6-2.4-3.1s1-2.8,2.4-3.1
					c9.4-1.9,12.9-6.6,14.4-19.2c0.2-1.6,1.4-2.8,2.9-2.8c1.5,0,2.8,1.2,2.9,2.8c1.5,12.6,5,17.3,14.4,19.2c1.4,0.3,2.4,1.6,2.4,3.1
					s-1,2.8-2.4,3.1c-9.4,1.9-13.1,6.7-14.6,19.2C767.5,524.9,766.1,525.6,765,525.6z M764.7,522.8L764.7,522.8L764.7,522.8z
					 M753.8,500.5c5.6,2.2,9.2,6.1,11.3,12.3c2.1-6.2,5.6-10.1,11.2-12.3c-5.7-2.3-9.2-6.3-11.2-13
					C763,494.3,759.5,498.3,753.8,500.5z"/>
			</g>
		</g>
		<g>
			<g>
				
					<linearGradient id="SVGID_5_" gradientUnits="userSpaceOnUse" x1="296.77" y1="579.45" x2="333.29" y2="579.45" gradientTransform="matrix(1 0 0 -1 0 1080)">
					<stop  offset="0" style="stop-color:#5600A0"/>
					<stop  offset="0.2557" style="stop-color:#500099"/>
					<stop  offset="0.615" style="stop-color:#410087"/>
					<stop  offset="1" style="stop-color:#2A006C"/>
				</linearGradient>
				<path class="st4" d="M315.1,524.1c-0.2,0-1-0.1-1.2-1.4c-1.6-13.1-5.7-18.5-16-20.6c-0.7-0.1-1.2-0.8-1.2-1.6s0.5-1.5,1.2-1.6
					c10.1-2,14-7.2,15.6-20.5l0,0c0.1-0.8,0.7-1.4,1.4-1.4l0,0c0.8,0,1.3,0.6,1.4,1.4c1.6,13.3,5.5,18.5,15.6,20.5
					c0.7,0.1,1.2,0.8,1.2,1.6s-0.5,1.5-1.2,1.6c-10.1,2-14.2,7.4-15.8,20.5C316.1,524,315.4,524.1,315.1,524.1z M298.4,500.5
					c9.9,2,14.7,7.2,16.7,18.6c2-11.5,6.7-16.6,16.5-18.6v0c-10.3-2.1-14.8-7.5-16.6-20.2C313.2,493,308.7,498.4,298.4,500.5
					C298.4,500.5,298.4,500.5,298.4,500.5z"/>
				
					<linearGradient id="SVGID_6_" gradientUnits="userSpaceOnUse" x1="295.74" y1="579.45" x2="334.34" y2="579.45" gradientTransform="matrix(1 0 0 -1 0 1080)">
					<stop  offset="0" style="stop-color:#5600A0"/>
					<stop  offset="0.2557" style="stop-color:#500099"/>
					<stop  offset="0.615" style="stop-color:#410087"/>
					<stop  offset="1" style="stop-color:#2A006C"/>
				</linearGradient>
				<path class="st5" d="M315.1,525.1c-0.9,0-2-0.6-2.2-2.3c-1.5-12.8-5.3-17.7-15.1-19.7c-1.2-0.2-2-1.3-2-2.6s0.8-2.4,2-2.6
					c9.7-2,13.3-6.7,14.8-19.6c0.2-1.4,1.2-2.3,2.5-2.3s2.3,1,2.5,2.3c1.5,12.9,5.1,17.6,14.8,19.6c1.2,0.2,2,1.3,2,2.6
					s-0.8,2.4-2,2.6c-9.7,2-13.5,6.9-15,19.6C317.1,524.5,316,525.1,315.1,525.1z M315.1,523.1L315.1,523.1L315.1,523.1z
					 M314.6,520.1c0.1,0.8,0.2,1.7,0.4,2.5c0,0.3,0.1,0.4,0.1,0.5c0,0,0.1-0.2,0.2-0.5c0.1-0.8,0.2-1.7,0.3-2.5
					c-0.1,0.1-0.3,0.1-0.5,0.1C314.9,520.2,314.8,520.2,314.6,520.1z M302.4,500.5c6.6,2.2,10.6,6.6,12.7,14c2.1-7.4,6-11.7,12.5-14
					c-6.8-2.3-10.6-6.7-12.6-14.7C313,493.8,309.2,498.2,302.4,500.5z M315,478c-0.3,0-0.4,0.3-0.4,0.5c0,0.3-0.1,0.6-0.1,0.9
					c0.2-0.1,0.3-0.1,0.5-0.1l0,0c0.2,0,0.4,0,0.5,0.1c0-0.3-0.1-0.6-0.1-0.9C315.4,478.3,315.3,478,315,478z"/>
			</g>
			<g>
				
					<linearGradient id="SVGID_7_" gradientUnits="userSpaceOnUse" x1="296.28" y1="579.45" x2="333.77" y2="579.45" gradientTransform="matrix(1 0 0 -1 0 1080)">
					<stop  offset="0" style="stop-color:#5600A0"/>
					<stop  offset="0.2557" style="stop-color:#500099"/>
					<stop  offset="0.615" style="stop-color:#410087"/>
					<stop  offset="1" style="stop-color:#2A006C"/>
				</linearGradient>
				<path class="st6" d="M315.1,524.6c-0.2,0-1.4-0.1-1.6-1.8c-1.5-12.9-5.6-18.2-15.6-20.2c-0.9-0.2-1.6-1-1.6-2.1s0.6-1.9,1.6-2.1
					c9.9-2,13.7-7,15.2-20.1c0.1-1.1,0.9-1.9,1.9-1.9s1.8,0.8,1.9,1.9c1.5,13,5.4,18.1,15.2,20.1c0.9,0.2,1.6,1,1.6,2.1
					c0,1-0.6,1.9-1.6,2.1c-9.9,2-13.9,7.2-15.4,20.1C316.6,524.5,315.4,524.6,315.1,524.6z M315,477.5c-0.5,0-0.9,0.4-1,1
					c-1.6,13.5-5.6,18.8-16,20.9c-0.5,0.1-0.8,0.6-0.8,1.1s0.3,1,0.8,1.1c10.5,2.1,14.8,7.6,16.4,21c0.1,0.9,0.5,1,0.7,1
					c0.2,0,0.6-0.1,0.7-1c1.6-13.4,5.8-18.8,16.2-20.9c0.5-0.1,0.8-0.6,0.8-1.1s-0.3-1-0.8-1.1c-10.4-2.1-14.4-7.4-16-20.9
					C315.9,477.9,315.5,477.5,315,477.5z M315.1,519.7c-0.2,0-0.4-0.2-0.5-0.4c-1.9-11.1-6.5-16.2-16.3-18.2c-0.2,0-0.4-0.2-0.4-0.5
					v0c0-0.2,0.2-0.4,0.4-0.5c10.2-2.1,14.4-7.3,16.2-19.8c0-0.2,0.2-0.4,0.5-0.4c0.2,0,0.4,0.2,0.5,0.4c1.8,12.5,6,17.7,16.2,19.8
					c0.2,0,0.4,0.2,0.4,0.5s-0.2,0.4-0.4,0.5c-9.7,2-14.2,7.1-16.1,18.2C315.5,519.5,315.4,519.7,315.1,519.7L315.1,519.7z
					 M300.5,500.5c8.2,2.2,12.5,6.9,14.6,16.2c2.1-9.2,6.3-14,14.4-16.2c-8.4-2.2-12.6-7.2-14.5-17.3
					C313.1,493.3,308.9,498.3,300.5,500.5z"/>
				
					<linearGradient id="SVGID_8_" gradientUnits="userSpaceOnUse" x1="295.26" y1="579.455" x2="334.8" y2="579.455" gradientTransform="matrix(1 0 0 -1 0 1080)">
					<stop  offset="0" style="stop-color:#5600A0"/>
					<stop  offset="0.2557" style="stop-color:#500099"/>
					<stop  offset="0.615" style="stop-color:#410087"/>
					<stop  offset="1" style="stop-color:#2A006C"/>
				</linearGradient>
				<path class="st7" d="M315.1,525.6c-0.9,0-2.4-0.6-2.7-2.7c-1.5-12.5-5.2-17.4-14.8-19.3c-1.4-0.3-2.4-1.6-2.4-3.1s1-2.8,2.4-3.1
					c9.4-1.9,12.9-6.6,14.4-19.2c0.2-1.6,1.4-2.8,2.9-2.8s2.8,1.2,2.9,2.8c1.5,12.6,5,17.3,14.4,19.2c1.4,0.3,2.4,1.6,2.4,3.1
					s-1,2.8-2.4,3.1c-9.4,1.9-13.1,6.7-14.6,19.2C317.6,524.9,316.2,525.6,315.1,525.6z M303.8,500.5c5.6,2.2,9.2,6.1,11.3,12.3
					c2.1-6.2,5.6-10.1,11.1-12.3c-5.7-2.3-9.2-6.3-11.2-13C313,494.2,309.5,498.2,303.8,500.5z"/>
			</g>
		</g>
	</g>
	<g>
		
			<linearGradient id="SVGID_9_" gradientUnits="userSpaceOnUse" x1="425.82" y1="695.62" x2="449" y2="695.62" gradientTransform="matrix(1 0 0 -1 0 1080)">
			<stop  offset="0" style="stop-color:#5600A0"/>
			<stop  offset="0.2729" style="stop-color:#4E0097"/>
			<stop  offset="0.7154" style="stop-color:#3A007F"/>
			<stop  offset="1" style="stop-color:#2A006C"/>
		</linearGradient>
		<path class="st8" d="M425.8,384.9c7,1.4,10.3,5,11.6,13c1.4-8,4.6-11.6,11.5-13c0,0,0,0,0,0c-7.2-1.5-10.3-5.2-11.6-14.1
			C436.1,379.7,433,383.5,425.8,384.9L425.8,384.9z"/>
		
			<linearGradient id="SVGID_10_" gradientUnits="userSpaceOnUse" x1="631.56" y1="695.62" x2="654.7401" y2="695.62" gradientTransform="matrix(1 0 0 -1 0 1080)">
			<stop  offset="0" style="stop-color:#5600A0"/>
			<stop  offset="0.2729" style="stop-color:#4E0097"/>
			<stop  offset="0.7154" style="stop-color:#3A007F"/>
			<stop  offset="1" style="stop-color:#2A006C"/>
		</linearGradient>
		<path class="st9" d="M631.6,384.9c7,1.4,10.3,5,11.7,13c1.4-8,4.7-11.6,11.5-13c0,0,0,0,0,0c-7.2-1.5-10.3-5.2-11.6-14.1
			C641.9,379.7,638.8,383.5,631.6,384.9L631.6,384.9z"/>
		
			<linearGradient id="SVGID_11_" gradientUnits="userSpaceOnUse" x1="528.41" y1="757.71" x2="551.59" y2="757.71" gradientTransform="matrix(1 0 0 -1 0 1080)">
			<stop  offset="0" style="stop-color:#5600A0"/>
			<stop  offset="0.2729" style="stop-color:#4E0097"/>
			<stop  offset="0.7154" style="stop-color:#3A007F"/>
			<stop  offset="1" style="stop-color:#2A006C"/>
		</linearGradient>
		<path class="st10" d="M528.4,322.9c7,1.4,10.3,5,11.7,13c1.4-8,4.7-11.6,11.5-13c0,0,0,0,0,0c-7.2-1.5-10.3-5.2-11.6-14.1
			C538.7,317.6,535.6,321.4,528.4,322.9C528.4,322.8,528.4,322.8,528.4,322.9z"/>
		<g>
			<g>
				<g>
					
						<linearGradient id="SVGID_12_" gradientUnits="userSpaceOnUse" x1="401.1134" y1="622.6249" x2="678.8867" y2="622.6249" gradientTransform="matrix(1 0 0 -1 0 1080)">
						<stop  offset="0" style="stop-color:#5600A0"/>
						<stop  offset="0.2729" style="stop-color:#4E0097"/>
						<stop  offset="0.7154" style="stop-color:#3A007F"/>
						<stop  offset="1" style="stop-color:#2A006C"/>
					</linearGradient>
					<path class="st11" d="M602.8,536c-0.7,0-1.3,0-2,0c-22.2-0.4-43.2-7.6-60.9-20.7c-17.7,13.2-38.7,20.3-60.9,20.7
						c-0.6,0-1.3,0-2,0c-28.6,0-55.3-11.2-75.3-31.8c-0.9-1-1-2.5-0.1-3.5c19.4-21.4,47.1-34,76.1-34.5c0.4,0,0.8,0,1.2,0
						c-0.5-0.8-1-1.7-1.5-2.6c-14.3-25.2-17.6-55.4-9.1-83c0.4-1.3,1.7-2,3-1.7c28.5,6.9,52.2,24.7,66.7,50.2
						c0.7,1.2,1.3,2.3,1.9,3.5c0.6-1.1,1.2-2.3,1.9-3.4c14.5-25.5,38.2-43.4,66.7-50.2c1.3-0.3,2.6,0.4,3,1.7
						c8.5,27.6,5.2,57.9-9.1,83c-0.5,0.9-1,1.8-1.5,2.6c0.4,0,0.8,0,1.2,0c29.4,0.5,56.4,12.8,76.1,34.5c0.9,1,0.9,2.5-0.1,3.5
						C658.1,524.8,631.5,536,602.8,536z M407.1,502.4c19.3,18.9,44.8,29,71.9,28.5c21.7-0.4,42.3-7.6,59.4-20.8
						c0.9-0.7,2.2-0.7,3.1,0c17.1,13.2,37.7,20.4,59.4,20.8c27.2,0.5,52.6-9.6,71.9-28.5c-18.6-19.6-43.7-30.6-70.8-31.1
						c-1.5,0-3.6,0-5.6,0c-0.9,0-1.8-0.5-2.3-1.3s-0.4-1.9,0.1-2.6c1.3-1.8,2.5-3.9,3.9-6.3c13.2-23.2,16.6-51.1,9.4-76.7
						c-26.1,7-47.8,23.6-61.2,47.2c-1.5,2.6-2.8,5.2-4,7.7c-0.4,0.9-1.3,1.5-2.3,1.5c0,0,0,0,0,0c-1,0-1.9-0.6-2.3-1.5
						c-1.2-2.5-2.5-5-4-7.7c-13.4-23.6-35.1-40.3-61.2-47.2c-7.2,25.7-3.9,53.5,9.4,76.8c1.4,2.4,2.6,4.4,3.9,6.3
						c0.5,0.8,0.6,1.8,0.1,2.6c-0.5,0.8-1.4,1.3-2.3,1.3c-1.6-0.1-3.4-0.1-5.7,0C451.2,471.8,425.5,483.1,407.1,502.4z"/>
				</g>
			</g>
			<g>
				
					<linearGradient id="SVGID_13_" gradientUnits="userSpaceOnUse" x1="505.13" y1="642.7563" x2="574.8901" y2="642.7563" gradientTransform="matrix(1 0 0 -1 0 1080)">
					<stop  offset="0" style="stop-color:#5600A0"/>
					<stop  offset="0.2729" style="stop-color:#4E0097"/>
					<stop  offset="0.7154" style="stop-color:#3A007F"/>
					<stop  offset="1" style="stop-color:#2A006C"/>
				</linearGradient>
				<path class="st12" d="M540,514.6c-0.6,0-1.2-0.2-1.7-0.7c-2.4-2.3-4.7-4.6-6.7-6.9c-13.4-15.1-22.1-33.6-25.2-53.5
					c-0.8-5.3-1.3-10.9-1.3-16.4c0-28.9,12.1-56.9,33.1-76.7c1-0.9,2.5-0.9,3.5,0c21.1,19.8,33.2,47.8,33.2,76.7
					c0,5.5-0.4,11-1.3,16.4c-3.1,19.9-11.8,38.4-25.2,53.5c-2.2,2.4-4.4,4.8-6.7,6.9C541.2,514.4,540.6,514.6,540,514.6z M540,365.9
					c-19.3,19-29.8,44.2-29.8,71.4c0,5.2,0.4,10.5,1.2,15.6c2.9,18.9,11.2,36.5,24,50.9c1.4,1.6,3,3.3,4.6,4.9
					c1.6-1.5,3.1-3.2,4.6-4.9c12.8-14.4,21.1-32,24-50.9c0.8-5.1,1.2-10.3,1.2-15.6C569.8,410.1,559.3,384.8,540,365.9z"/>
				<g>
					
						<linearGradient id="SVGID_14_" gradientUnits="userSpaceOnUse" x1="414.7515" y1="605.1742" x2="665.2484" y2="605.1742" gradientTransform="matrix(1 0 0 -1 0 1080)">
						<stop  offset="0" style="stop-color:#5600A0"/>
						<stop  offset="0.2729" style="stop-color:#4E0097"/>
						<stop  offset="0.7154" style="stop-color:#3A007F"/>
						<stop  offset="1" style="stop-color:#2A006C"/>
					</linearGradient>
					<path class="st13" d="M516.8,518.6c-17.7,0-35.3-4.5-51.1-13.3c-25.3-14.1-43.9-38.2-50.9-66.2c-0.3-1.3,0.4-2.6,1.7-3
						c27.5-8.8,57.9-5.8,83.1,8.3c3.7,2,7.3,4.4,10.7,6.8c0.5,0.4,0.9,1,1,1.6c2.9,18.9,11.2,36.5,24,50.9c1.4,1.6,3,3.3,4.6,4.9
						c1.6-1.5,3.1-3.2,4.6-4.9c12.8-14.4,21.1-32,24-50.9c0.1-0.7,0.5-1.3,1-1.6c3.4-2.5,7-4.8,10.7-6.8c25.3-14,55.6-17.1,83.1-8.3
						c1.3,0.4,2,1.7,1.7,3c-7.1,28-25.6,52.2-50.9,66.2c-22.7,12.6-49,16.4-74.2,10.7C532.3,517.7,524.6,518.6,516.8,518.6z
						 M420.3,440.2c7.2,25.7,24.5,47.7,47.9,60.7c20.7,11.5,44.6,15.3,67.7,10.8c-1.5-1.5-3-3.1-4.3-4.6
						c-13.2-14.8-21.8-32.9-25-52.4c-3-2.1-6.1-4.1-9.4-5.9C473.5,435.5,446.3,432.5,420.3,440.2z M544.1,511.7
						c23.1,4.5,47,0.7,67.7-10.8c23.4-13,40.7-35,47.9-60.7c-25.9-7.6-53.1-4.6-76.9,8.6c-3.2,1.8-6.4,3.8-9.4,5.9
						c-3.2,19.5-11.9,37.6-25,52.4C547,508.7,545.5,510.2,544.1,511.7z"/>
				</g>
			</g>
		</g>
		
			<linearGradient id="SVGID_15_" gradientUnits="userSpaceOnUse" x1="521.8354" y1="528.09" x2="558.1546" y2="528.09" gradientTransform="matrix(1 0 0 -1 0 1080)">
			<stop  offset="0" style="stop-color:#5600A0"/>
			<stop  offset="0.2729" style="stop-color:#4E0097"/>
			<stop  offset="0.7154" style="stop-color:#3A007F"/>
			<stop  offset="1" style="stop-color:#2A006C"/>
		</linearGradient>
		<path class="st14" d="M540,576.8c-0.6,0-1.2-0.2-1.7-0.7c-7.3-6.9-13-15.5-16.3-25c-0.3-1,0-2.1,0.7-2.8
			c5.1-4.3,9.3-9.5,12.7-15.4c0.9-1.5,1.6-3,2.3-4.5c0.4-0.9,1.3-1.5,2.3-1.5c0,0,0,0,0,0c1,0,1.9,0.6,2.3,1.5
			c0.7,1.4,1.4,2.9,2.3,4.5c3.3,5.9,7.6,11,12.7,15.4c0.8,0.7,1.1,1.8,0.7,2.8c-3.3,9.5-9,18.1-16.3,25
			C541.2,576.6,540.6,576.8,540,576.8z M527.3,551c2.8,7.3,7.2,14,12.7,19.7c5.5-5.6,9.8-12.4,12.7-19.7c-4.9-4.5-9.1-9.7-12.5-15.6
			c-0.1-0.1-0.1-0.2-0.2-0.4c-0.1,0.1-0.1,0.2-0.2,0.3C536.5,541.3,532.3,546.6,527.3,551z"/>
	</g>
	<g>
		<g>
			
				<linearGradient id="SVGID_16_" gradientUnits="userSpaceOnUse" x1="367.8099" y1="428.6943" x2="627.9133" y2="428.6943" gradientTransform="matrix(1 0 0 -1 0 1080)">
				<stop  offset="0" style="stop-color:#5600A0"/>
				<stop  offset="0.2729" style="stop-color:#4E0097"/>
				<stop  offset="0.7154" style="stop-color:#3A007F"/>
				<stop  offset="1" style="stop-color:#2A006C"/>
			</linearGradient>
			<path class="st15" d="M501.8,690.6l-2.6-3.4c5-3.7,32.2-15.2,44.6-16c4.2-0.2,10.8-0.4,18.4-0.5c14.2-0.2,31.8-0.5,38.6-1.9
				c3-0.6,6.1-1.1,9.2-1.6c4.9-0.8,12.2-2,13.6-3.2c0-1.2-0.5-4-2.8-6.8c-1.8-2.3-5.4-5.1-11.7-5.5c-3.6-0.3-9.4-0.4-16.1-0.6
				c-17.9-0.5-45-1.2-66.2-4.8c-15.1-2.6-29.3-10.8-41.8-17.9c-11.9-6.8-23-11.3-32.9-12c-8.7-0.6-25.4,6.7-37,11.1
				c-15.8,6-29.2,7.5-47.3,4.9l0.6-4.2c17,2.5,29.9,1.1,45.2-4.7c12.1-4.6,29.1-12,38.8-11.4c10.9,0.7,22.5,5.5,34.7,12.5
				c12.8,7.3,26,14.9,40.4,17.4c20.9,3.6,47.8,4.3,65.6,4.8c7,0.2,12.5,0.3,16.3,0.6c7.8,0.6,12.3,4.2,14.7,7.1
				c3,3.7,4,7.9,3.7,10.3c-0.5,3.7-5.9,4.8-17.1,6.6c-3,0.5-6.1,1-9,1.6c-7.2,1.5-24.3,1.8-39.4,2c-7.6,0.1-14.2,0.2-18.2,0.5
				C532.7,676.2,506.4,687.2,501.8,690.6z"/>
			
				<linearGradient id="SVGID_17_" gradientUnits="userSpaceOnUse" x1="378.7" y1="392.2318" x2="694.9579" y2="392.2318" gradientTransform="matrix(1 0 0 -1 0 1080)">
				<stop  offset="0" style="stop-color:#5600A0"/>
				<stop  offset="0.2729" style="stop-color:#4E0097"/>
				<stop  offset="0.7154" style="stop-color:#3A007F"/>
				<stop  offset="1" style="stop-color:#2A006C"/>
			</linearGradient>
			<path class="st16" d="M521.4,728.6c-12.4-1.8-24.1-5.3-33.1-10.1c-59.3-32-91-33.5-108.5-28.6l-1.1-4.1
				c16.9-4.7,37.3-1.9,63.8,7.3c21.8,7.6,40.8,17.8,47.9,21.7c15.1,8.2,38.6,12.3,59.7,10.6c6.9-0.6,14.8-1.4,22.5-2.3
				c15-1.6,29.1-3.2,35.5-2.6c0.7,0.1,4.4-0.7,20-13.4c10.1-8.2,22.1-18.7,32.6-28c13.7-12.1,22.3-19.6,25.4-21.2
				c3.7-2,4.8-3.9,4.6-4.9c-0.1-0.8-1.1-1.4-2.4-1.6c-0.5-0.1-1.1-0.2-1.9-0.3c-5.9-1.1-19.8-3.6-32,5.5c-6.3,4.7-14,11-21.5,17.2
				c-9.6,7.8-18.6,15.3-23.3,18.1c-9,5.5-58.2,5-67.3,0.6c-8.9-4.3-15-14.1-15.2-14.5l3.7-2.2c0,0.1,5.7,9.2,13.5,12.9
				c7.6,3.7,55.6,4.3,63.2-0.4c4.5-2.7,13.4-10.1,22.8-17.8c7.5-6.2,15.3-12.5,21.7-17.3c13.6-10.2,28.8-7.5,35.3-6.3
				c0.7,0.1,1.3,0.2,1.7,0.3c3.2,0.5,5.5,2.5,6,5.1c0.3,1.6,0.2,5.7-6.8,9.4c-2.8,1.5-13.4,10.8-24.6,20.7
				c-10.6,9.3-22.6,19.9-32.8,28.2c-16,12.9-20.5,14.5-23,14.2c-5.9-0.5-20.5,1-34.6,2.6c-7.7,0.8-15.7,1.7-22.6,2.3
				C540.9,730.3,531,730,521.4,728.6z"/>
			
				<linearGradient id="SVGID_18_" gradientUnits="userSpaceOnUse" x1="550.4605" y1="456.5822" x2="581.2" y2="456.5822" gradientTransform="matrix(1 0 0 -1 0 1080)">
				<stop  offset="0" style="stop-color:#5600A0"/>
				<stop  offset="0.2729" style="stop-color:#4E0097"/>
				<stop  offset="0.7154" style="stop-color:#3A007F"/>
				<stop  offset="1" style="stop-color:#2A006C"/>
			</linearGradient>
			<path class="st17" d="M551.6,647.5c-1.4-7.9-2.9-33.9,4.7-42.9c4.1-4.9,9.4-7.8,14-7.6c2.2,0.1,4,0.8,5,2.2
				c1,1.3,1.2,4.2,1.9,16.5c0.6,10.7,1.7,28.5,4,31.6l-3.4,2.6c-2.9-3.8-3.9-17-4.9-33.9c-0.3-5.9-0.8-12.6-1.2-14.2
				c-0.2-0.1-0.7-0.4-1.7-0.4c-2.6,0-6.7,1.6-10.5,6.1c-5.7,6.7-5.4,29.6-3.7,39.4L551.6,647.5z M571.7,601.5L571.7,601.5
				L571.7,601.5z"/>
			
				<linearGradient id="SVGID_19_" gradientUnits="userSpaceOnUse" x1="611.7101" y1="451.8774" x2="645.3102" y2="451.8774" gradientTransform="matrix(1 0 0 -1 0 1080)">
				<stop  offset="0" style="stop-color:#5600A0"/>
				<stop  offset="0.2729" style="stop-color:#4E0097"/>
				<stop  offset="0.7154" style="stop-color:#3A007F"/>
				<stop  offset="1" style="stop-color:#2A006C"/>
			</linearGradient>
			<path class="st18" d="M629.8,676l-3.8-2c6.1-11.7,12.1-32.6,14-48.7c1.1-9,0.9-18.2,0.8-25.6c-0.1-5.6-0.2-10,0.3-13
				c0.2-1.4-0.4-1.8-1-2c-2.4-0.8-7.6,1-10.7,6.5c-4.2,7.3-6.3,26.9-7.5,37.4c-0.3,2.6-0.5,4.7-0.7,6c-1,7.1-5.3,16.2-5.5,16.6
				l-3.9-1.8c0-0.1,4.2-8.9,5.1-15.4c0.2-1.3,0.4-3.3,0.7-5.9c1.2-11.6,3.3-31,8-39c4.2-7.2,11.3-10,15.8-8.4c2.8,1,4.3,3.5,3.8,6.7
				c-0.4,2.7-0.3,7.2-0.2,12.4c0.1,7.5,0.3,16.8-0.8,26.2C642.2,642.4,636,664,629.8,676z"/>
			
				<linearGradient id="SVGID_20_" gradientUnits="userSpaceOnUse" x1="579.1" y1="397.29" x2="603.04" y2="397.29" gradientTransform="matrix(1 0 0 -1 0 1080)">
				<stop  offset="0" style="stop-color:#5600A0"/>
				<stop  offset="0.2729" style="stop-color:#4E0097"/>
				<stop  offset="0.7154" style="stop-color:#3A007F"/>
				<stop  offset="1" style="stop-color:#2A006C"/>
			</linearGradient>
			<path class="st19" d="M579.5,695.8l0-4.3c-0.2,0-0.4,0.1-0.4,0.1c2.3-0.9,14.7-14,20.5-22l3.5,2.5c-2.8,3.8-7.6,9.5-12.3,14.5
				C582.1,695.8,580.5,695.8,579.5,695.8z"/>
			
				<linearGradient id="SVGID_21_" gradientUnits="userSpaceOnUse" x1="584.8541" y1="463.7196" x2="616.79" y2="463.7196" gradientTransform="matrix(1 0 0 -1 0 1080)">
				<stop  offset="0" style="stop-color:#5600A0"/>
				<stop  offset="0.2729" style="stop-color:#4E0097"/>
				<stop  offset="0.7154" style="stop-color:#3A007F"/>
				<stop  offset="1" style="stop-color:#2A006C"/>
			</linearGradient>
			<path class="st20" d="M586.7,648.7c0-0.2,0.4-17.3-1.6-34.5c-2.1-18.2,8-28.3,13.2-30.2c1.5-0.6,2.7-0.2,3.3,0.2
				c2.1,1.3,2.5,4.6,2.9,9.5c0.3,3,0.6,6.3,1.4,9.8c0.7,3.2,2,7.2,3.5,11.9c3.1,9.8,7,21.9,7.3,32.5l-4.3,0.1
				c-0.3-10-4-21.8-7.1-31.3c-1.5-4.8-2.8-8.9-3.6-12.2c-0.8-3.8-1.2-7.4-1.5-10.3c-0.2-2.2-0.5-4.8-0.9-5.9
				c-3,1.5-12,9.2-10.2,25.6c2,17.5,1.6,34.9,1.6,35.1L586.7,648.7z"/>
			
				<linearGradient id="SVGID_22_" gradientUnits="userSpaceOnUse" x1="553.9" y1="397.07" x2="579.3201" y2="397.07" gradientTransform="matrix(1 0 0 -1 0 1080)">
				<stop  offset="0" style="stop-color:#5600A0"/>
				<stop  offset="0.2729" style="stop-color:#4E0097"/>
				<stop  offset="0.7154" style="stop-color:#3A007F"/>
				<stop  offset="1" style="stop-color:#2A006C"/>
			</linearGradient>
			<path class="st21" d="M556.6,694.5l-2.7-3.3c7.5-6.2,20.1-17.1,21.8-19.8l3.6,2.3C576.6,677.9,558.7,692.8,556.6,694.5z"/>
		</g>
	</g>
</g>
</svg>
