<?xml version="1.0" encoding="utf-8"?>
<!-- Generator: Adobe Illustrator 24.0.1, SVG Export Plug-In . SVG Version: 6.00 Build 0)  -->
<svg version="1.1" id="Layer_1" xmlns="http://www.w3.org/2000/svg" xmlns:xlink="http://www.w3.org/1999/xlink" x="0px" y="0px"
	 viewBox="0 0 600 1000" style="enable-background:new 0 0 600 1000;" xml:space="preserve">
<style type="text/css">
	.st0{fill:#2A006C;}
</style>
<circle class="st0" cx="70" cy="87.2" r="33.5"/>
<circle class="st0" cx="190" cy="87.2" r="33.5"/>
<circle class="st0" cx="310" cy="86.8" r="33.5"/>
<circle class="st0" cx="430" cy="86.8" r="33.5"/>
<circle class="st0" cx="70" cy="217.2" r="33.5"/>
<circle class="st0" cx="190" cy="217.2" r="33.5"/>
<circle class="st0" cx="310" cy="216.8" r="33.5"/>
<circle class="st0" cx="430" cy="216.8" r="33.5"/>
<circle class="st0" cx="70" cy="347.2" r="33.5"/>
<circle class="st0" cx="190" cy="347.2" r="33.5"/>
<circle class="st0" cx="310" cy="346.8" r="33.5"/>
<circle class="st0" cx="430" cy="346.8" r="33.5"/>
<circle class="st0" cx="70" cy="477.2" r="33.5"/>
<circle class="st0" cx="190" cy="477.2" r="33.5"/>
<circle class="st0" cx="310" cy="476.8" r="33.5"/>
<circle class="st0" cx="430" cy="476.8" r="33.5"/>
<circle class="st0" cx="70" cy="607.2" r="33.5"/>
<circle class="st0" cx="190" cy="607.2" r="33.5"/>
<circle class="st0" cx="310" cy="606.8" r="33.5"/>
<circle class="st0" cx="430" cy="606.8" r="33.5"/>
<circle class="st0" cx="70" cy="737.2" r="33.5"/>
<circle class="st0" cx="190" cy="737.2" r="33.5"/>
<circle class="st0" cx="310" cy="736.8" r="33.5"/>
<circle class="st0" cx="430" cy="736.8" r="33.5"/>
<circle class="st0" cx="70" cy="867.2" r="33.5"/>
<circle class="st0" cx="190" cy="867.2" r="33.5"/>
<circle class="st0" cx="310" cy="866.8" r="33.5"/>
<circle class="st0" cx="430" cy="866.8" r="33.5"/>
<circle class="st0" cx="550" cy="86.5" r="33.5"/>
<circle class="st0" cx="550" cy="216.5" r="33.5"/>
<circle class="st0" cx="550" cy="346.5" r="33.5"/>
<circle class="st0" cx="550" cy="476.5" r="33.5"/>
<circle class="st0" cx="550" cy="606.5" r="33.5"/>
<circle class="st0" cx="550" cy="736.5" r="33.5"/>
<circle class="st0" cx="550" cy="866.5" r="33.5"/>
</svg>
