<?xml version="1.0" encoding="utf-8"?>
<!-- Generator: Adobe Illustrator 24.0.1, SVG Export Plug-In . SVG Version: 6.00 Build 0)  -->
<svg version="1.1" id="Layer_1" xmlns="http://www.w3.org/2000/svg" xmlns:xlink="http://www.w3.org/1999/xlink" x="0px" y="0px"
	 viewBox="0 0 600 535" style="enable-background:new 0 0 600 535;" xml:space="preserve">
<style type="text/css">
	.st0{fill:#48149B;}
</style>
<g>
	<circle class="st0" cx="51.5" cy="383" r="33.5"/>
	<circle class="st0" cx="51.5" cy="298" r="33.5"/>
	<circle class="st0" cx="51.5" cy="213" r="33.5"/>
	<circle class="st0" cx="51.5" cy="128" r="33.5"/>
	<circle class="st0" cx="51.5" cy="43" r="33.5"/>
	<g>
		<circle class="st0" cx="138.5" cy="383.5" r="33.5"/>
		<circle class="st0" cx="138.5" cy="298.5" r="33.5"/>
		<circle class="st0" cx="138.5" cy="213.5" r="33.5"/>
		<circle class="st0" cx="138.5" cy="128.5" r="33.5"/>
	</g>
	<circle class="st0" cx="225.5" cy="383" r="33.5"/>
	<circle class="st0" cx="225.5" cy="298" r="33.5"/>
	<circle class="st0" cx="225.5" cy="213" r="33.5"/>
	<circle class="st0" cx="312.5" cy="383" r="33.5"/>
	<circle class="st0" cx="312.5" cy="298" r="33.5"/>
	<circle class="st0" cx="399.5" cy="383" r="33.5"/>
	<circle class="st0" cx="51.5" cy="468" r="33.5"/>
	<circle class="st0" cx="138.5" cy="468" r="33.5"/>
	<circle class="st0" cx="225.5" cy="468" r="33.5"/>
	<circle class="st0" cx="312.5" cy="468" r="33.5"/>
	<circle class="st0" cx="399.5" cy="468" r="33.5"/>
	<circle class="st0" cx="486.5" cy="468" r="33.5"/>
</g>
</svg>
