<?xml version="1.0" encoding="utf-8"?>
<!-- Generator: Adobe Illustrator 23.1.0, SVG Export Plug-In . SVG Version: 6.00 Build 0)  -->
<svg version="1.1" id="Слой_1" xmlns="http://www.w3.org/2000/svg" xmlns:xlink="http://www.w3.org/1999/xlink" x="0px" y="0px"
	 viewBox="0 0 1080 1080" style="enable-background:new 0 0 1080 1080;" xml:space="preserve">
<style type="text/css">
	.st0{fill:url(#SVGID_1_);}
	.st1{fill:url(#SVGID_2_);}
	.st2{fill:url(#SVGID_3_);}
	.st3{fill:url(#SVGID_4_);}
	.st4{fill:url(#SVGID_5_);}
	.st5{fill:url(#SVGID_6_);}
	.st6{fill:url(#SVGID_7_);}
	.st7{fill:url(#SVGID_8_);}
	.st8{fill:url(#SVGID_9_);}
	.st9{fill:url(#SVGID_10_);}
	.st10{fill:url(#SVGID_11_);}
	.st11{fill:url(#SVGID_12_);}
	.st12{fill:url(#SVGID_13_);}
	.st13{fill:url(#SVGID_14_);}
	.st14{fill:url(#SVGID_15_);}
	.st15{fill:url(#SVGID_16_);}
	.st16{fill:url(#SVGID_17_);}
	.st17{fill:url(#SVGID_18_);}
	.st18{fill:url(#SVGID_19_);}
	.st19{fill:url(#SVGID_20_);}
	.st20{fill:url(#SVGID_21_);}
	.st21{fill:url(#SVGID_22_);}
	.st22{fill:url(#SVGID_23_);}
	.st23{fill:url(#SVGID_24_);}
	.st24{fill:url(#SVGID_25_);}
	.st25{fill:url(#SVGID_26_);}
	.st26{fill:url(#SVGID_27_);}
	.st27{fill:url(#SVGID_28_);}
	.st28{fill:url(#SVGID_29_);}
	.st29{fill:url(#SVGID_30_);}
	.st30{fill:url(#SVGID_31_);}
	.st31{fill:url(#SVGID_32_);}
	.st32{fill:url(#SVGID_33_);}
	.st33{fill:url(#SVGID_34_);}
	.st34{fill:url(#SVGID_35_);}
	.st35{fill:url(#SVGID_36_);}
	.st36{fill:url(#SVGID_37_);}
	.st37{fill:url(#SVGID_38_);}
	.st38{fill:url(#SVGID_39_);}
	.st39{fill:url(#SVGID_40_);}
	.st40{fill:#FFFFFF;}
	.st41{fill:#201600;}
	.st42{fill:url(#SVGID_41_);}
	.st43{fill:url(#SVGID_42_);}
	.st44{fill:url(#SVGID_43_);}
	.st45{fill:url(#SVGID_44_);}
	.st46{fill:url(#SVGID_45_);}
	.st47{fill:url(#SVGID_46_);}
	.st48{fill:url(#SVGID_47_);}
	.st49{fill:url(#SVGID_48_);}
	.st50{fill:url(#SVGID_49_);}
	.st51{fill:url(#SVGID_50_);}
	.st52{fill:url(#SVGID_51_);}
	.st53{fill:url(#SVGID_52_);}
	.st54{fill:url(#SVGID_53_);}
	.st55{fill:url(#SVGID_54_);}
	.st56{fill:url(#SVGID_55_);}
	.st57{fill:url(#SVGID_56_);}
	.st58{fill:url(#SVGID_57_);}
	.st59{fill:url(#SVGID_58_);}
	.st60{fill:url(#SVGID_59_);}
	.st61{fill:url(#SVGID_60_);}
	.st62{fill:url(#SVGID_61_);}
	.st63{fill:url(#SVGID_62_);}
	.st64{fill:url(#SVGID_63_);}
	.st65{fill:url(#SVGID_64_);}
	.st66{fill:url(#SVGID_65_);}
	.st67{fill:url(#SVGID_66_);}
	.st68{fill:url(#SVGID_67_);}
	.st69{fill:url(#SVGID_68_);}
	.st70{fill:url(#SVGID_69_);}
	.st71{fill:url(#SVGID_70_);}
	.st72{fill:url(#SVGID_71_);}
	.st73{fill:url(#SVGID_72_);}
	.st74{fill:url(#SVGID_73_);}
	.st75{fill:url(#SVGID_74_);}
	.st76{fill:url(#SVGID_75_);}
	.st77{fill:url(#SVGID_76_);}
	.st78{fill:url(#SVGID_77_);}
	.st79{fill:url(#SVGID_78_);}
	.st80{fill:url(#SVGID_79_);}
	.st81{fill:url(#SVGID_80_);}
	.st82{fill:url(#SVGID_81_);}
	.st83{fill:url(#SVGID_82_);}
	.st84{fill:url(#SVGID_83_);}
	.st85{fill:url(#SVGID_84_);}
	.st86{fill:url(#SVGID_85_);}
	.st87{fill:url(#SVGID_86_);}
	.st88{fill:url(#SVGID_87_);}
	.st89{fill:url(#SVGID_88_);}
	.st90{fill:url(#SVGID_89_);}
	.st91{fill:url(#SVGID_90_);}
	.st92{fill:url(#SVGID_91_);}
	.st93{fill:url(#SVGID_92_);}
	.st94{fill:url(#SVGID_93_);}
	.st95{fill:url(#SVGID_94_);}
	.st96{fill:url(#SVGID_95_);}
	.st97{fill:url(#SVGID_96_);}
	.st98{fill:url(#SVGID_97_);}
	.st99{fill:url(#SVGID_98_);}
	.st100{fill:url(#SVGID_99_);}
	.st101{fill:url(#SVGID_100_);}
	.st102{fill:url(#SVGID_101_);}
	.st103{fill:url(#SVGID_102_);}
	.st104{fill:url(#SVGID_103_);}
	.st105{fill:url(#SVGID_104_);}
	.st106{fill:url(#SVGID_105_);}
	.st107{fill:url(#SVGID_106_);}
	.st108{fill:url(#SVGID_107_);}
	.st109{fill:url(#SVGID_108_);}
	.st110{fill:url(#SVGID_109_);}
	.st111{fill:url(#SVGID_110_);}
	.st112{fill:url(#SVGID_111_);}
	.st113{fill:url(#SVGID_112_);}
	.st114{fill:url(#SVGID_113_);}
	.st115{fill:url(#SVGID_114_);}
	.st116{fill:url(#SVGID_115_);}
	.st117{fill:url(#SVGID_116_);}
	.st118{fill:url(#SVGID_117_);}
	.st119{fill:url(#SVGID_118_);}
	.st120{fill:url(#SVGID_119_);}
	.st121{fill:url(#SVGID_120_);}
	.st122{fill:url(#SVGID_121_);}
	.st123{fill:url(#SVGID_122_);}
	.st124{fill:url(#SVGID_123_);}
	.st125{fill:url(#SVGID_124_);}
	.st126{fill:url(#SVGID_125_);}
	.st127{fill:url(#SVGID_126_);}
	.st128{fill:url(#SVGID_127_);}
	.st129{fill:url(#SVGID_128_);}
	.st130{fill:url(#SVGID_129_);}
	.st131{fill:url(#SVGID_130_);}
	.st132{fill:url(#SVGID_131_);}
	.st133{fill:url(#SVGID_132_);}
	.st134{fill:url(#SVGID_133_);}
	.st135{fill:url(#SVGID_134_);}
	.st136{fill:url(#SVGID_135_);}
	.st137{fill:url(#SVGID_136_);}
	.st138{fill:url(#SVGID_137_);}
	.st139{fill:url(#SVGID_138_);}
	.st140{fill:url(#SVGID_139_);}
	.st141{fill:url(#SVGID_140_);}
	.st142{fill:url(#SVGID_141_);}
	.st143{fill:url(#SVGID_142_);}
	.st144{fill:url(#SVGID_143_);}
	.st145{fill:url(#SVGID_144_);}
	.st146{fill:url(#SVGID_145_);}
	.st147{fill:url(#SVGID_146_);}
	.st148{fill:url(#SVGID_147_);}
	.st149{fill:url(#SVGID_148_);}
	.st150{fill:url(#SVGID_149_);}
	.st151{fill:url(#SVGID_150_);}
	.st152{fill:url(#SVGID_151_);}
	.st153{fill:url(#SVGID_152_);}
	.st154{fill:url(#SVGID_153_);}
	.st155{fill:url(#SVGID_154_);}
	.st156{fill:url(#SVGID_155_);}
	.st157{fill:url(#SVGID_156_);}
	.st158{fill:url(#SVGID_157_);}
	.st159{fill:url(#SVGID_158_);}
	.st160{fill:url(#SVGID_159_);}
	.st161{fill:url(#SVGID_160_);}
	.st162{fill:url(#SVGID_161_);}
	.st163{fill:url(#SVGID_162_);}
	.st164{fill:url(#SVGID_163_);}
	.st165{fill:url(#SVGID_164_);}
	.st166{fill:url(#SVGID_165_);}
	.st167{fill:url(#SVGID_166_);}
	.st168{fill:url(#SVGID_167_);}
	.st169{fill:url(#SVGID_168_);}
	.st170{fill:url(#SVGID_169_);}
	.st171{fill:url(#SVGID_170_);}
	.st172{fill:url(#SVGID_171_);}
	.st173{fill:url(#SVGID_172_);}
	.st174{fill:url(#SVGID_173_);}
	.st175{fill:url(#SVGID_174_);}
	.st176{fill:url(#SVGID_175_);}
	.st177{fill:url(#SVGID_176_);}
	.st178{fill:url(#SVGID_177_);}
	.st179{fill:url(#SVGID_178_);}
	.st180{fill:url(#SVGID_179_);}
	.st181{fill:url(#SVGID_180_);}
	.st182{fill:url(#SVGID_181_);}
	.st183{fill:url(#SVGID_182_);}
	.st184{fill:#491D88;}
	.st185{fill:url(#SVGID_183_);}
	.st186{fill:url(#SVGID_184_);}
	.st187{fill:url(#SVGID_185_);}
	.st188{fill:url(#SVGID_186_);}
	.st189{fill:url(#SVGID_187_);}
	.st190{fill:url(#SVGID_188_);}
	.st191{fill:url(#SVGID_189_);}
	.st192{fill:url(#SVGID_190_);}
	.st193{fill:url(#SVGID_191_);}
	.st194{fill:url(#SVGID_192_);}
	.st195{fill:url(#SVGID_193_);}
	.st196{fill:url(#SVGID_194_);}
	.st197{fill:url(#SVGID_195_);}
	.st198{fill:url(#SVGID_196_);}
	.st199{fill:url(#SVGID_197_);}
	.st200{fill:url(#SVGID_198_);}
	.st201{fill:url(#SVGID_199_);}
	.st202{fill:url(#SVGID_200_);}
	.st203{fill:url(#SVGID_201_);}
	.st204{fill:url(#SVGID_202_);}
	.st205{fill:url(#SVGID_203_);}
	.st206{fill:url(#SVGID_204_);}
	.st207{fill:url(#SVGID_205_);}
	.st208{fill:url(#SVGID_206_);}
	.st209{fill:url(#SVGID_207_);}
	.st210{fill:url(#SVGID_208_);}
	.st211{fill:url(#SVGID_209_);}
	.st212{fill:url(#SVGID_210_);}
	.st213{fill:url(#SVGID_211_);}
	.st214{fill:url(#SVGID_212_);}
	.st215{fill:url(#SVGID_213_);}
	.st216{fill:url(#SVGID_214_);}
	.st217{fill:url(#SVGID_215_);}
	.st218{fill:url(#SVGID_216_);}
	.st219{fill:url(#SVGID_217_);}
	.st220{fill:url(#SVGID_218_);}
	.st221{fill:url(#SVGID_219_);}
	.st222{fill:url(#SVGID_220_);}
	.st223{fill:url(#SVGID_221_);}
	.st224{fill:url(#SVGID_222_);}
	.st225{fill:url(#SVGID_223_);}
</style>
<g>
	<g>
		<g>
			<g>
				<linearGradient id="SVGID_1_" gradientUnits="userSpaceOnUse" x1="746.7078" y1="500.5771" x2="783.2379" y2="500.5771">
					<stop  offset="0" style="stop-color:#5600A0"/>
					<stop  offset="0.2557" style="stop-color:#500099"/>
					<stop  offset="0.615" style="stop-color:#410087"/>
					<stop  offset="1" style="stop-color:#2A006C"/>
				</linearGradient>
				<path class="st0" d="M765.05,524.13c-0.24,0-1.02-0.1-1.17-1.39c-1.56-13.14-5.74-18.52-15.97-20.57
					c-0.71-0.14-1.2-0.81-1.2-1.62c0-0.81,0.49-1.48,1.2-1.62c10.11-2.03,14.04-7.2,15.61-20.49v0c0.1-0.84,0.69-1.43,1.44-1.43
					c0,0,0,0,0,0c0.75,0,1.34,0.59,1.44,1.43c1.58,13.29,5.52,18.45,15.63,20.48c0.71,0.14,1.2,0.81,1.2,1.62
					c0,0.81-0.49,1.48-1.2,1.62c-10.11,2.03-14.24,7.4-15.79,20.51C766.09,524.03,765.29,524.13,765.05,524.13z M748.38,500.56
					c9.94,2.03,14.69,7.21,16.68,18.63c1.97-11.45,6.66-16.62,16.5-18.64c0,0,0-0.01,0-0.01c-10.31-2.11-14.78-7.47-16.6-20.2
					c-1.8,12.73-6.28,18.1-16.58,20.21C748.38,500.55,748.38,500.55,748.38,500.56z"/>
				<linearGradient id="SVGID_2_" gradientUnits="userSpaceOnUse" x1="745.6782" y1="500.5771" x2="784.2676" y2="500.5771">
					<stop  offset="0" style="stop-color:#5600A0"/>
					<stop  offset="0.2557" style="stop-color:#500099"/>
					<stop  offset="0.615" style="stop-color:#410087"/>
					<stop  offset="1" style="stop-color:#2A006C"/>
				</linearGradient>
				<path class="st1" d="M765.05,525.16c-0.89,0-1.99-0.6-2.19-2.3c-1.51-12.75-5.34-17.71-15.15-19.68
					c-1.19-0.24-2.03-1.32-2.03-2.63c0-1.31,0.83-2.39,2.03-2.63c9.68-1.95,13.27-6.71,14.79-19.6c0.16-1.35,1.2-2.34,2.47-2.34
					c1.27,0,2.31,0.98,2.47,2.33c1.53,12.89,5.13,17.65,14.81,19.59c1.19,0.24,2.03,1.32,2.03,2.63c0,1.31-0.83,2.39-2.03,2.63
					c-9.69,1.95-13.46,6.9-14.97,19.62C767.07,524.54,765.95,525.16,765.05,525.16z M765.06,523.11L765.06,523.11L765.06,523.11z
					 M764.55,520.09c0.13,0.81,0.25,1.66,0.35,2.53c0.04,0.31,0.12,0.44,0.15,0.48c0.04-0.03,0.13-0.18,0.18-0.54
					c0.1-0.85,0.21-1.67,0.34-2.47c-0.15,0.09-0.32,0.13-0.51,0.13c0,0,0,0,0,0C764.88,520.22,764.7,520.17,764.55,520.09z
					 M752.36,500.56c6.62,2.25,10.56,6.57,12.69,13.96c2.11-7.39,5.99-11.71,12.54-13.96c-6.81-2.29-10.6-6.69-12.63-14.74
					C762.95,493.85,759.17,498.26,752.36,500.56z M764.97,478.05c-0.27,0-0.39,0.28-0.42,0.52c-0.03,0.3-0.07,0.59-0.11,0.89
					c0.16-0.09,0.34-0.15,0.53-0.15c0,0,0,0,0,0c0.19,0,0.38,0.05,0.53,0.15c-0.04-0.29-0.07-0.59-0.11-0.89
					C765.36,478.33,765.23,478.05,764.97,478.05z"/>
			</g>
			<g>
				<linearGradient id="SVGID_3_" gradientUnits="userSpaceOnUse" x1="746.2291" y1="500.5772" x2="783.7166" y2="500.5772">
					<stop  offset="0" style="stop-color:#5600A0"/>
					<stop  offset="0.2557" style="stop-color:#500099"/>
					<stop  offset="0.615" style="stop-color:#410087"/>
					<stop  offset="1" style="stop-color:#2A006C"/>
				</linearGradient>
				<path class="st2" d="M765.05,524.61c-0.24,0-1.44-0.09-1.65-1.82c-1.53-12.88-5.61-18.16-15.59-20.16
					c-0.93-0.19-1.59-1.05-1.59-2.09c0-1.04,0.65-1.9,1.58-2.09c9.85-1.98,13.69-7.05,15.23-20.07c0.13-1.09,0.92-1.85,1.92-1.85
					c1,0,1.79,0.76,1.92,1.85c1.55,13.03,5.39,18.09,15.25,20.06c0.93,0.19,1.59,1.04,1.59,2.09c0,1.04-0.65,1.9-1.58,2.09
					c-9.86,1.98-13.89,7.24-15.4,20.1C766.52,524.52,765.29,524.61,765.05,524.61z M764.97,477.5c-0.51,0-0.9,0.4-0.97,1
					c-1.6,13.55-5.63,18.82-15.99,20.9c-0.48,0.1-0.82,0.57-0.82,1.15c0,0.58,0.34,1.05,0.82,1.15c10.48,2.1,14.76,7.59,16.35,20.98
					c0.1,0.88,0.52,0.97,0.69,0.97c0.18,0,0.62-0.1,0.73-1.04c1.58-13.37,5.81-18.84,16.17-20.93c0.48-0.1,0.82-0.57,0.82-1.15
					c0-0.58-0.34-1.05-0.82-1.15c-10.36-2.08-14.4-7.35-16.01-20.89C765.86,477.9,765.47,477.5,764.97,477.5z M765.06,519.67
					c-0.23,0-0.43-0.17-0.47-0.4c-1.94-11.13-6.51-16.24-16.3-18.24c-0.22-0.05-0.38-0.24-0.38-0.47v-0.01
					c0-0.23,0.16-0.42,0.38-0.47c10.19-2.09,14.43-7.27,16.2-19.81c0.03-0.24,0.24-0.41,0.47-0.41c0.24,0,0.44,0.18,0.47,0.41
					c1.78,12.54,6.03,17.72,16.22,19.8c0.22,0.05,0.38,0.24,0.38,0.47c0,0.23-0.16,0.43-0.38,0.48
					c-9.69,1.99-14.21,7.11-16.13,18.25C765.49,519.5,765.29,519.67,765.06,519.67C765.06,519.67,765.06,519.67,765.06,519.67z
					 M750.46,500.55c8.22,2.19,12.51,6.93,14.6,16.17c2.07-9.25,6.31-14,14.44-16.18c-8.4-2.24-12.57-7.2-14.53-17.29
					C763.02,493.35,758.85,498.3,750.46,500.55z"/>
				<linearGradient id="SVGID_4_" gradientUnits="userSpaceOnUse" x1="745.1995" y1="500.5771" x2="784.7463" y2="500.5771">
					<stop  offset="0" style="stop-color:#5600A0"/>
					<stop  offset="0.2557" style="stop-color:#500099"/>
					<stop  offset="0.615" style="stop-color:#410087"/>
					<stop  offset="1" style="stop-color:#2A006C"/>
				</linearGradient>
				<path class="st3" d="M765.05,525.64c-0.87,0-2.41-0.57-2.67-2.73c-1.48-12.49-5.21-17.35-14.77-19.27
					c-1.42-0.28-2.41-1.56-2.41-3.1c0-1.54,0.99-2.81,2.41-3.1c9.42-1.89,12.92-6.56,14.41-19.19c0.19-1.6,1.43-2.76,2.94-2.76
					c1.52,0,2.75,1.16,2.94,2.76c1.5,12.63,5,17.29,14.43,19.18c1.42,0.28,2.41,1.56,2.41,3.1c0,1.54-0.99,2.81-2.41,3.1
					c-9.43,1.9-13.11,6.74-14.59,19.21C767.51,524.91,766.14,525.64,765.05,525.64z M764.68,522.79L764.68,522.79L764.68,522.79z
					 M753.76,500.55c5.63,2.23,9.18,6.1,11.29,12.32c2.08-6.22,5.59-10.09,11.15-12.32c-5.73-2.28-9.21-6.28-11.23-12.95
					C762.95,494.26,759.48,498.27,753.76,500.55z"/>
			</g>
		</g>
		<g>
			<g>
				<linearGradient id="SVGID_5_" gradientUnits="userSpaceOnUse" x1="296.7624" y1="500.5556" x2="333.2924" y2="500.5556">
					<stop  offset="0" style="stop-color:#5600A0"/>
					<stop  offset="0.2557" style="stop-color:#500099"/>
					<stop  offset="0.615" style="stop-color:#410087"/>
					<stop  offset="1" style="stop-color:#2A006C"/>
				</linearGradient>
				<path class="st4" d="M315.11,524.11c-0.24,0-1.02-0.1-1.17-1.39c-1.56-13.14-5.74-18.52-15.97-20.57
					c-0.71-0.14-1.2-0.81-1.2-1.62c0-0.81,0.49-1.48,1.2-1.62c10.11-2.03,14.04-7.2,15.61-20.49v0c0.1-0.84,0.69-1.43,1.44-1.43
					c0,0,0,0,0,0c0.75,0,1.34,0.59,1.44,1.43c1.58,13.29,5.52,18.45,15.63,20.48c0.71,0.14,1.2,0.81,1.2,1.62
					c0,0.81-0.49,1.48-1.2,1.62c-10.11,2.03-14.24,7.4-15.79,20.51C316.15,524.01,315.35,524.11,315.11,524.11z M298.44,500.54
					c9.94,2.03,14.69,7.21,16.68,18.63c1.97-11.45,6.66-16.62,16.5-18.64c0,0,0-0.01,0-0.01c-10.31-2.11-14.78-7.47-16.6-20.2
					c-1.8,12.73-6.28,18.1-16.58,20.21C298.44,500.53,298.44,500.53,298.44,500.54z"/>
				<linearGradient id="SVGID_6_" gradientUnits="userSpaceOnUse" x1="295.7324" y1="500.5555" x2="334.3225" y2="500.5555">
					<stop  offset="0" style="stop-color:#5600A0"/>
					<stop  offset="0.2557" style="stop-color:#500099"/>
					<stop  offset="0.615" style="stop-color:#410087"/>
					<stop  offset="1" style="stop-color:#2A006C"/>
				</linearGradient>
				<path class="st5" d="M315.11,525.14c-0.89,0-1.99-0.6-2.19-2.3c-1.51-12.75-5.34-17.71-15.15-19.68
					c-1.19-0.24-2.03-1.32-2.03-2.63c0-1.31,0.83-2.39,2.03-2.63c9.68-1.95,13.27-6.71,14.79-19.6c0.16-1.35,1.2-2.34,2.47-2.34
					c1.27,0,2.31,0.98,2.47,2.33c1.53,12.89,5.13,17.65,14.81,19.59c1.19,0.24,2.03,1.32,2.03,2.63c0,1.31-0.83,2.39-2.03,2.63
					c-9.69,1.95-13.46,6.9-14.97,19.62C317.12,524.52,316,525.14,315.11,525.14z M315.12,523.08L315.12,523.08L315.12,523.08z
					 M314.61,520.07c0.13,0.81,0.25,1.66,0.35,2.53c0.04,0.31,0.12,0.44,0.15,0.48c0.04-0.03,0.13-0.18,0.18-0.54
					c0.1-0.85,0.21-1.67,0.34-2.47c-0.15,0.09-0.32,0.13-0.51,0.13C314.93,520.17,314.76,520.15,314.61,520.07z M302.41,500.53
					c6.62,2.25,10.56,6.57,12.69,13.96c2.11-7.39,5.99-11.71,12.54-13.96c-6.81-2.29-10.6-6.69-12.63-14.74
					C313,493.83,309.22,498.24,302.41,500.53z M315.02,478.03c-0.27,0-0.39,0.28-0.42,0.52c-0.03,0.3-0.07,0.59-0.11,0.89
					c0.16-0.09,0.34-0.15,0.53-0.15l0,0c0.19,0,0.38,0.05,0.53,0.15c-0.04-0.29-0.07-0.59-0.11-0.89
					C315.41,478.31,315.29,478.03,315.02,478.03z"/>
			</g>
			<g>
				<linearGradient id="SVGID_7_" gradientUnits="userSpaceOnUse" x1="296.2837" y1="500.5556" x2="333.7711" y2="500.5556">
					<stop  offset="0" style="stop-color:#5600A0"/>
					<stop  offset="0.2557" style="stop-color:#500099"/>
					<stop  offset="0.615" style="stop-color:#410087"/>
					<stop  offset="1" style="stop-color:#2A006C"/>
				</linearGradient>
				<path class="st6" d="M315.11,524.59c-0.24,0-1.44-0.09-1.65-1.82c-1.53-12.88-5.61-18.16-15.59-20.16
					c-0.93-0.19-1.59-1.05-1.59-2.09c0-1.04,0.65-1.9,1.58-2.09c9.85-1.98,13.69-7.05,15.23-20.07c0.13-1.09,0.92-1.85,1.92-1.85
					c1,0,1.79,0.76,1.92,1.85c1.55,13.03,5.39,18.09,15.25,20.06c0.93,0.19,1.59,1.04,1.59,2.09c0,1.04-0.65,1.9-1.58,2.09
					c-9.86,1.98-13.89,7.24-15.4,20.1C316.57,524.5,315.35,524.59,315.11,524.59z M315.02,477.48c-0.51,0-0.9,0.4-0.97,1
					c-1.6,13.54-5.63,18.82-15.99,20.9c-0.48,0.1-0.82,0.57-0.82,1.15c0,0.58,0.34,1.05,0.82,1.15c10.48,2.1,14.76,7.59,16.35,20.98
					c0.1,0.88,0.52,0.97,0.69,0.97c0.18,0,0.62-0.1,0.73-1.04c1.58-13.37,5.81-18.84,16.17-20.93c0.48-0.1,0.82-0.57,0.82-1.15
					c0-0.58-0.34-1.05-0.82-1.15c-10.36-2.08-14.4-7.35-16.01-20.89C315.92,477.88,315.53,477.48,315.02,477.48z M315.11,519.65
					c-0.23,0-0.43-0.17-0.47-0.4c-1.94-11.13-6.51-16.24-16.3-18.24c-0.22-0.05-0.38-0.24-0.38-0.47v-0.01
					c0-0.23,0.16-0.42,0.38-0.47c10.19-2.09,14.43-7.27,16.2-19.81c0.03-0.24,0.24-0.41,0.47-0.41c0.24,0,0.44,0.18,0.47,0.41
					c1.78,12.54,6.03,17.72,16.22,19.8c0.22,0.05,0.38,0.24,0.38,0.47c0,0.23-0.16,0.43-0.38,0.48
					c-9.69,1.99-14.21,7.11-16.13,18.25C315.55,519.48,315.35,519.65,315.11,519.65C315.11,519.65,315.11,519.65,315.11,519.65z
					 M300.51,500.53c8.22,2.19,12.51,6.93,14.6,16.17c2.07-9.25,6.31-14,14.44-16.18c-8.4-2.24-12.57-7.2-14.53-17.29
					C313.07,493.33,308.91,498.28,300.51,500.53z"/>
				<linearGradient id="SVGID_8_" gradientUnits="userSpaceOnUse" x1="295.2537" y1="500.5555" x2="334.8012" y2="500.5555">
					<stop  offset="0" style="stop-color:#5600A0"/>
					<stop  offset="0.2557" style="stop-color:#500099"/>
					<stop  offset="0.615" style="stop-color:#410087"/>
					<stop  offset="1" style="stop-color:#2A006C"/>
				</linearGradient>
				<path class="st7" d="M315.11,525.62c-0.87,0-2.41-0.57-2.67-2.73c-1.48-12.49-5.21-17.35-14.77-19.27
					c-1.42-0.28-2.41-1.56-2.41-3.1c0-1.54,0.99-2.81,2.41-3.1c9.42-1.89,12.92-6.56,14.41-19.19c0.19-1.6,1.42-2.76,2.94-2.76
					c1.52,0,2.75,1.16,2.94,2.76c1.5,12.63,5,17.29,14.43,19.18c1.42,0.28,2.41,1.56,2.41,3.1s-0.99,2.81-2.41,3.1
					c-9.43,1.9-13.11,6.74-14.59,19.21C317.56,524.89,316.2,525.62,315.11,525.62z M303.81,500.53c5.63,2.23,9.18,6.1,11.29,12.32
					c2.08-6.22,5.59-10.09,11.15-12.32c-5.73-2.28-9.21-6.28-11.23-12.95C313,494.24,309.53,498.24,303.81,500.53z"/>
			</g>
		</g>
	</g>
	<g>
		<path d="M428.1,273.47c0.3,0.53,0.75,1.13,1.35,1.81c0.6,0.68,1.4,1.23,2.4,1.65c1,0.43,2.23,0.61,3.7,0.54
			c1.47-0.06,3.22-0.58,5.23-1.56c2.53-1.23,4.32-2.69,5.37-4.39c1.05-1.7,1.08-3.59,0.07-5.67c-0.81-1.66-1.93-2.76-3.37-3.29
			c-1.44-0.53-3.06-0.78-4.85-0.76c-1.79,0.02-3.67,0.17-5.63,0.45c-1.96,0.28-3.86,0.39-5.68,0.33c-1.83-0.06-3.5-0.43-5.02-1.12
			c-1.52-0.69-2.74-1.97-3.65-3.86c-0.7-1.44-1.02-2.86-0.98-4.27c0.05-1.41,0.4-2.72,1.05-3.95c0.65-1.23,1.55-2.35,2.69-3.38
			c1.14-1.03,2.45-1.9,3.93-2.62c1.41-0.68,2.85-1.17,4.31-1.47c1.46-0.29,2.86-0.36,4.21-0.2c1.34,0.16,2.58,0.55,3.71,1.16
			c1.13,0.62,2.08,1.47,2.85,2.56l-3.27,1.59c-1.17-1.76-2.7-2.73-4.59-2.9c-1.89-0.17-3.87,0.25-5.95,1.26
			c-1.25,0.61-2.28,1.3-3.1,2.07c-0.81,0.77-1.43,1.56-1.85,2.38c-0.42,0.82-0.63,1.64-0.64,2.47c-0.01,0.84,0.17,1.64,0.54,2.41
			c0.67,1.38,1.7,2.24,3.1,2.59s3,0.48,4.8,0.4c1.8-0.08,3.72-0.26,5.75-0.53c2.03-0.27,3.99-0.35,5.9-0.22
			c1.9,0.12,3.66,0.58,5.27,1.36c1.61,0.78,2.89,2.16,3.86,4.15c0.7,1.44,1.05,2.89,1.04,4.36c0,1.46-0.33,2.87-0.99,4.21
			s-1.62,2.6-2.89,3.78c-1.27,1.17-2.84,2.21-4.7,3.11c-1.83,0.89-3.62,1.49-5.36,1.8c-1.75,0.32-3.38,0.36-4.9,0.13
			s-2.88-0.75-4.08-1.55c-1.2-0.8-2.17-1.87-2.9-3.22L428.1,273.47z"/>
		<path d="M479.71,224.1l0.82,2.82l-18.5,5.37l3.74,12.86l15.88-4.62l0.68,2.36l-15.88,4.61l4.36,15.01l18.5-5.37l0.82,2.82
			l-23.16,6.73l-10.42-35.87L479.71,224.1z"/>
		<path d="M534.04,249.38c-0.41,0.57-1.03,1.26-1.85,2.05c-0.82,0.79-1.87,1.56-3.14,2.3c-1.27,0.74-2.78,1.41-4.53,2
			c-1.75,0.59-3.76,0.99-6.02,1.2c-3.58,0.33-6.71,0.06-9.4-0.82c-2.69-0.88-4.95-2.15-6.78-3.82c-1.83-1.67-3.26-3.65-4.27-5.93
			c-1.01-2.28-1.64-4.66-1.87-7.14c-0.26-2.87-0.01-5.51,0.77-7.92c0.78-2.41,1.99-4.52,3.65-6.34c1.65-1.81,3.71-3.28,6.16-4.4
			c2.45-1.12,5.22-1.82,8.3-2.11c2.13-0.2,4.04-0.16,5.74,0.11c1.7,0.27,3.21,0.72,4.52,1.35c1.31,0.63,2.43,1.42,3.35,2.37
			s1.71,2,2.36,3.16l-3.93,0.36c-0.32-0.72-0.82-1.42-1.51-2.08c-0.69-0.67-1.54-1.24-2.57-1.72c-1.03-0.48-2.18-0.83-3.47-1.07
			c-1.29-0.24-2.7-0.29-4.22-0.15c-2.23,0.21-4.26,0.8-6.08,1.79c-1.82,0.99-3.35,2.28-4.6,3.85c-1.25,1.58-2.16,3.41-2.74,5.48
			c-0.58,2.07-0.75,4.31-0.53,6.72c0.21,2.27,0.77,4.41,1.69,6.43c0.92,2.02,2.16,3.77,3.72,5.23c1.56,1.46,3.45,2.57,5.67,3.33
			c2.21,0.76,4.7,1.01,7.46,0.76c4.96-0.46,9.09-2.55,12.39-6.29L534.04,249.38z"/>
		<path d="M561.78,219.8c2.37,0.27,4.29,0.81,5.78,1.64c1.48,0.83,2.62,1.78,3.41,2.85c0.79,1.07,1.31,2.2,1.55,3.37
			s0.31,2.24,0.21,3.19c-0.12,1.06-0.42,2.13-0.89,3.2s-1.15,2.04-2.03,2.91s-1.96,1.55-3.24,2.05c-1.28,0.5-2.78,0.71-4.49,0.62
			l-0.02,0.21l0.5,0.32c0.4,0.26,0.73,0.57,1,0.92c0.26,0.35,0.6,0.91,0.99,1.67s0.93,1.83,1.59,3.21c0.66,1.38,1.61,3.23,2.83,5.55
			c0.41,0.8,0.81,1.51,1.2,2.15c0.39,0.63,0.81,1.18,1.26,1.64c0.45,0.46,0.94,0.83,1.49,1.11c0.54,0.28,1.18,0.46,1.93,0.54
			c0.18,0.02,0.35,0.03,0.53,0.03c0.18,0,0.36,0,0.54-0.02l-0.22,1.96c-0.53,0.23-1.04,0.35-1.54,0.36
			c-0.5,0.01-1.14-0.02-1.92-0.11c-1.06-0.12-1.95-0.36-2.68-0.73c-0.72-0.37-1.36-0.82-1.9-1.37c-0.54-0.54-1.03-1.18-1.46-1.91
			s-0.86-1.53-1.3-2.4l-3.51-6.68c-0.53-1.06-0.99-1.95-1.37-2.68c-0.39-0.72-0.82-1.33-1.31-1.81c-0.48-0.48-1.05-0.85-1.68-1.1
			c-0.64-0.25-1.45-0.43-2.45-0.54l-2.34-0.26l-1.84,16.38l-4.83-0.54l4.17-37.12L561.78,219.8z M552.51,237.33l5.48,0.62
			c1.42,0.16,2.7,0.05,3.83-0.32c1.14-0.37,2.12-0.92,2.96-1.63c0.83-0.71,1.49-1.53,1.97-2.46s0.78-1.87,0.88-2.83
			c0.13-1.13,0.04-2.2-0.26-3.2s-0.8-1.89-1.5-2.67c-0.7-0.78-1.58-1.42-2.61-1.93s-2.23-0.84-3.58-0.99l-5.38-0.6L552.51,237.33z"
			/>
		<path d="M621.03,233.4l-0.86,2.81l-18.42-5.64l-3.92,12.81l15.82,4.84l-0.72,2.35l-15.82-4.84l-4.58,14.95l18.42,5.64l-0.86,2.81
			l-23.06-7.06l10.94-35.71L621.03,233.4z"/>
		<path d="M628.95,277.88l15.6-30.67l-12.75-6.48l1.33-2.62l29.82,15.17l-1.33,2.62l-12.75-6.48l-15.6,30.67L628.95,277.88z"/>
	</g>
	<g>
		<g>
			<path d="M341.56,731.25c2.23-0.9,4.6-1.34,7.11-1.33c2.51,0.01,5.06,0.57,7.64,1.68s5.02,3.01,7.31,5.69
				c2.31,2.71,3.83,5.46,4.57,8.27s0.93,5.49,0.58,8.03c-0.35,2.55-1.12,4.86-2.31,6.95c-1.19,2.09-2.54,3.78-4.05,5.07
				c-1,0.85-2.18,1.61-3.53,2.28c-1.35,0.66-2.81,1.18-4.38,1.57c-1.57,0.38-3.22,0.56-4.94,0.54c-1.73-0.02-3.47-0.3-5.23-0.83
				c-1.76-0.53-3.5-1.34-5.2-2.44c-1.71-1.09-3.33-2.55-4.88-4.36c-2.29-2.68-3.77-5.39-4.45-8.13c-0.68-2.74-0.82-5.36-0.42-7.85
				c0.4-2.49,1.21-4.76,2.43-6.81c1.22-2.05,2.59-3.72,4.1-5.01C337.45,733.25,339.33,732.15,341.56,731.25z M334.83,743.87
				c-1.09,1.93-1.76,3.89-2.03,5.88c-0.27,1.98-0.13,3.94,0.41,5.86c0.54,1.92,1.51,3.69,2.89,5.32c1.36,1.6,2.97,2.83,4.82,3.71
				c1.85,0.88,3.8,1.36,5.84,1.46s4.13-0.22,6.24-0.95c2.11-0.73,4.12-1.9,6.01-3.52c1.89-1.62,3.37-3.41,4.42-5.39
				c1.05-1.97,1.69-3.98,1.91-6.02c0.22-2.04,0.05-4.04-0.53-6s-1.55-3.74-2.91-5.34c-1.39-1.62-2.99-2.85-4.8-3.69
				s-3.72-1.28-5.72-1.32c-2-0.04-4.04,0.32-6.12,1.09c-2.08,0.77-4.07,1.96-5.96,3.58C337.41,740.16,335.92,741.94,334.83,743.87z"
				/>
			<path d="M404.11,777.19l-1.91,2.23l-14.64-12.52l-8.7,10.18l12.57,10.75l-1.59,1.87l-12.57-10.75l-12.07,14.11l-3.69-3.16
				l24.27-28.39L404.11,777.19z"/>
			<path d="M423.79,833.11l15.36-30.8l-12.8-6.38l1.31-2.63l29.94,14.93l-1.31,2.63l-12.8-6.38l-15.36,30.8L423.79,833.11z"/>
			<path d="M461.75,849.13l-4.68-1.3l9.99-35.99l4.68,1.3l-4.37,15.73l21.54,5.98l4.37-15.73l4.68,1.3l-9.99,35.99l-4.68-1.3
				l4.97-17.89l-21.54-5.98L461.75,849.13z"/>
			<path d="M537.31,824.45l-0.23,2.93l-19.2-1.54l-1.07,13.35l16.49,1.32l-0.2,2.45l-16.49-1.32l-1.25,15.58l19.2,1.54l-0.23,2.92
				l-24.04-1.92l2.98-37.23L537.31,824.45z"/>
			<path d="M577.58,858.73l-6.94-36.7l4.77-0.9l6.4,33.82l18.93-3.58l0.55,2.88L577.58,858.73z"/>
			<path d="M606.71,827.07c-0.13-2.4,0.21-4.78,1.03-7.16c0.82-2.37,2.17-4.6,4.06-6.69c1.89-2.09,4.47-3.78,7.74-5.08
				c3.3-1.31,6.41-1.86,9.3-1.66c2.9,0.21,5.49,0.89,7.79,2.05s4.24,2.63,5.83,4.43c1.59,1.8,2.76,3.62,3.49,5.47
				c0.49,1.22,0.82,2.58,1.02,4.07c0.19,1.49,0.21,3.04,0.07,4.65c-0.15,1.61-0.51,3.23-1.09,4.85c-0.58,1.63-1.4,3.19-2.47,4.69
				c-1.07,1.5-2.4,2.88-3.98,4.14c-1.59,1.26-3.49,2.33-5.7,3.21c-3.27,1.3-6.32,1.83-9.13,1.59c-2.81-0.24-5.34-0.95-7.56-2.13
				c-2.23-1.18-4.12-2.68-5.66-4.5c-1.54-1.82-2.68-3.65-3.42-5.5C607.28,831.61,606.84,829.47,606.71,827.07z M616.48,837.52
				c1.48,1.65,3.11,2.93,4.9,3.82s3.68,1.4,5.68,1.51c2,0.11,3.98-0.23,5.97-1.02c1.95-0.77,3.64-1.89,5.07-3.36
				c1.43-1.46,2.52-3.15,3.27-5.06c0.75-1.91,1.13-3.98,1.12-6.21c-0.01-2.24-0.47-4.51-1.39-6.83s-2.14-4.29-3.67-5.92
				c-1.53-1.63-3.22-2.88-5.08-3.75c-1.86-0.87-3.81-1.35-5.85-1.44c-2.04-0.09-4.04,0.26-5.99,1.03c-1.98,0.79-3.66,1.91-5.04,3.35
				c-1.38,1.45-2.41,3.11-3.1,4.99s-1,3.93-0.95,6.15c0.06,2.22,0.54,4.48,1.46,6.8C613.8,833.88,615,835.87,616.48,837.52z"/>
			<path d="M676.73,821.66l-18.45-29.05l-12.07,7.67l-1.57-2.48l28.24-17.93l1.57,2.48L662.38,790l18.45,29.05L676.73,821.66z"/>
			<path d="M683.12,771.43l16.18,18.25c0.47,0.53,0.96,1.05,1.46,1.56c0.5,0.51,1.06,0.95,1.68,1.33c0.62,0.38,1.33,0.69,2.12,0.94
				c0.79,0.25,1.73,0.37,2.81,0.36c1.38,0.01,2.66-0.2,3.83-0.62c1.17-0.42,2.32-1.13,3.43-2.12c1.3-1.16,2.39-2.45,3.26-3.89
				c0.87-1.43,1.32-3.09,1.36-4.98c0.01-1.06-0.1-2-0.34-2.84c-0.24-0.83-0.56-1.61-0.96-2.33c-0.4-0.72-0.85-1.39-1.35-2.01
				c-0.5-0.62-1.02-1.23-1.54-1.81l-14.97-16.89l1.76-1.56l16.14,18.21c1.25,1.41,2.2,2.94,2.84,4.57s0.93,3.32,0.87,5.04
				c-0.07,1.72-0.52,3.43-1.37,5.13s-2.12,3.31-3.82,4.82c-2.71,2.41-5.19,3.93-7.44,4.56s-4.26,0.74-6.07,0.32
				c-1.8-0.42-3.39-1.2-4.77-2.33c-1.38-1.13-2.55-2.24-3.52-3.33l-15.22-17.17L683.12,771.43z"/>
			<path d="M732.13,763.2c0.49,0.36,1.14,0.73,1.97,1.1c0.83,0.37,1.78,0.55,2.87,0.53c1.08-0.01,2.29-0.35,3.61-1
				c1.32-0.65,2.7-1.84,4.15-3.55c1.81-2.15,2.86-4.21,3.13-6.19c0.27-1.98-0.47-3.71-2.24-5.21c-1.41-1.19-2.88-1.74-4.42-1.63
				c-1.53,0.1-3.11,0.53-4.74,1.27c-1.63,0.74-3.28,1.64-4.96,2.69c-1.68,1.05-3.37,1.92-5.06,2.61s-3.38,1.02-5.04,1.01
				c-1.67-0.01-3.3-0.69-4.91-2.05c-1.22-1.03-2.1-2.2-2.63-3.51c-0.53-1.31-0.74-2.65-0.64-4.04c0.1-1.38,0.46-2.78,1.09-4.19
				c0.63-1.4,1.47-2.73,2.53-3.99c1.01-1.2,2.12-2.23,3.34-3.09s2.47-1.49,3.76-1.89c1.29-0.4,2.58-0.55,3.87-0.44
				c1.28,0.11,2.5,0.5,3.64,1.19l-2.34,2.78c-1.79-1.14-3.58-1.4-5.37-0.79c-1.79,0.61-3.44,1.8-4.93,3.57
				c-0.9,1.06-1.56,2.11-1.99,3.15s-0.67,2.01-0.72,2.92c-0.05,0.91,0.09,1.75,0.42,2.52s0.82,1.43,1.47,1.98
				c1.17,0.99,2.46,1.36,3.88,1.11c1.42-0.25,2.94-0.78,4.55-1.58c1.61-0.81,3.29-1.75,5.03-2.82c1.74-1.07,3.51-1.94,5.3-2.6
				s3.58-0.96,5.36-0.9c1.79,0.06,3.52,0.8,5.21,2.23c1.22,1.03,2.13,2.22,2.72,3.56s0.86,2.76,0.81,4.25s-0.42,3.04-1.11,4.62
				s-1.7,3.17-3.03,4.75c-1.31,1.55-2.7,2.83-4.17,3.82c-1.47,1-2.95,1.7-4.43,2.1s-2.93,0.49-4.36,0.24
				c-1.42-0.25-2.74-0.83-3.96-1.77L732.13,763.2z"/>
		</g>
	</g>
	<g>
		<linearGradient id="SVGID_9_" gradientUnits="userSpaceOnUse" x1="425.8237" y1="384.3873" x2="448.9998" y2="384.3873">
			<stop  offset="0" style="stop-color:#5600A0"/>
			<stop  offset="0.2729" style="stop-color:#4E0097"/>
			<stop  offset="0.7154" style="stop-color:#3A007F"/>
			<stop  offset="1" style="stop-color:#2A006C"/>
		</linearGradient>
		<path class="st8" d="M425.82,384.94c6.95,1.42,10.26,5.03,11.65,13.01c1.37-8,4.65-11.61,11.53-13.02c0,0,0,0,0-0.01
			c-7.2-1.47-10.33-5.22-11.59-14.11C436.15,379.71,433.02,383.46,425.82,384.94C425.82,384.94,425.82,384.94,425.82,384.94z"/>
		<linearGradient id="SVGID_10_" gradientUnits="userSpaceOnUse" x1="631.564" y1="384.3873" x2="654.7401" y2="384.3873">
			<stop  offset="0" style="stop-color:#5600A0"/>
			<stop  offset="0.2729" style="stop-color:#4E0097"/>
			<stop  offset="0.7154" style="stop-color:#3A007F"/>
			<stop  offset="1" style="stop-color:#2A006C"/>
		</linearGradient>
		<path class="st9" d="M631.56,384.94c6.95,1.42,10.26,5.03,11.65,13.01c1.37-8,4.65-11.61,11.53-13.02c0,0,0,0,0-0.01
			c-7.2-1.47-10.33-5.22-11.59-14.11C641.89,379.71,638.76,383.46,631.56,384.94C631.56,384.94,631.56,384.94,631.56,384.94z"/>
		<linearGradient id="SVGID_11_" gradientUnits="userSpaceOnUse" x1="528.4119" y1="322.2911" x2="551.5881" y2="322.2911">
			<stop  offset="0" style="stop-color:#5600A0"/>
			<stop  offset="0.2729" style="stop-color:#4E0097"/>
			<stop  offset="0.7154" style="stop-color:#3A007F"/>
			<stop  offset="1" style="stop-color:#2A006C"/>
		</linearGradient>
		<path class="st10" d="M528.41,322.85c6.95,1.42,10.26,5.03,11.65,13.01c1.37-8,4.65-11.61,11.53-13.02c0,0,0,0,0-0.01
			c-7.2-1.47-10.33-5.22-11.59-14.11C538.74,317.61,535.61,321.36,528.41,322.85C528.41,322.84,528.41,322.84,528.41,322.85z"/>
		<g>
			<g>
				<g>
					<linearGradient id="SVGID_12_" gradientUnits="userSpaceOnUse" x1="401.1194" y1="457.3741" x2="678.8806" y2="457.3741">
						<stop  offset="0" style="stop-color:#5600A0"/>
						<stop  offset="0.2729" style="stop-color:#4E0097"/>
						<stop  offset="0.7154" style="stop-color:#3A007F"/>
						<stop  offset="1" style="stop-color:#2A006C"/>
					</linearGradient>
					<path class="st11" d="M602.84,535.98c-0.65,0-1.3-0.01-1.96-0.02c-22.2-0.41-43.21-7.56-60.87-20.72
						c-17.7,13.16-38.71,20.32-60.89,20.72c-0.65,0.01-1.31,0.02-1.96,0.02c-28.61,0-55.3-11.23-75.33-31.76
						c-0.93-0.95-0.96-2.47-0.06-3.46c19.41-21.42,47.14-34.01,76.07-34.55c0.42-0.01,0.82-0.01,1.21-0.01
						c-0.5-0.83-1.01-1.7-1.54-2.61c-14.33-25.16-17.65-55.43-9.13-83.04c0.39-1.27,1.71-2.02,3.01-1.71
						c28.51,6.89,52.21,24.74,66.73,50.24c0.66,1.17,1.29,2.32,1.88,3.45c0.59-1.14,1.22-2.29,1.87-3.44
						c14.52-25.51,38.22-43.35,66.73-50.24c1.3-0.32,2.61,0.44,3.01,1.71c8.51,27.64,5.18,57.91-9.12,83.03
						c-0.52,0.92-1.03,1.78-1.54,2.62c0.41,0,0.8,0.01,1.17,0.01c29.36,0.55,56.38,12.82,76.11,34.55c0.9,0.99,0.87,2.5-0.06,3.46
						C658.13,524.75,631.45,535.98,602.84,535.98z M407.15,502.39c19.31,18.9,44.75,29.01,71.88,28.52
						c21.74-0.4,42.29-7.6,59.44-20.84c0.91-0.7,2.18-0.7,3.09,0c17.11,13.23,37.66,20.44,59.41,20.84
						c27.15,0.49,52.57-9.63,71.88-28.52c-18.62-19.59-43.68-30.63-70.81-31.14c-1.54-0.02-3.58-0.03-5.64,0.05
						c-0.94,0.04-1.85-0.46-2.31-1.3c-0.46-0.84-0.42-1.86,0.12-2.65c1.26-1.84,2.53-3.9,3.9-6.28
						c13.22-23.22,16.59-51.06,9.36-76.74c-26.1,6.95-47.77,23.65-61.2,47.23c-1.48,2.61-2.81,5.21-3.95,7.73
						c-0.41,0.9-1.3,1.48-2.29,1.48c0,0,0,0-0.01,0c-0.99,0-1.88-0.57-2.29-1.47c-1.16-2.52-2.47-5.05-3.99-7.74
						c-13.42-23.57-35.09-40.27-61.2-47.23c-7.24,25.66-3.87,53.49,9.37,76.75c1.36,2.38,2.63,4.44,3.9,6.28
						c0.54,0.79,0.59,1.81,0.12,2.65c-0.46,0.84-1.37,1.33-2.31,1.3c-1.62-0.07-3.37-0.08-5.69-0.05
						C451.19,471.76,425.53,483.08,407.15,502.39z"/>
				</g>
			</g>
			<g>
				<linearGradient id="SVGID_13_" gradientUnits="userSpaceOnUse" x1="505.1219" y1="437.2381" x2="574.878" y2="437.2381">
					<stop  offset="0" style="stop-color:#5600A0"/>
					<stop  offset="0.2729" style="stop-color:#4E0097"/>
					<stop  offset="0.7154" style="stop-color:#3A007F"/>
					<stop  offset="1" style="stop-color:#2A006C"/>
				</linearGradient>
				<path class="st12" d="M540,514.63c-0.62,0-1.25-0.23-1.73-0.69c-2.42-2.28-4.66-4.59-6.67-6.89
					c-13.4-15.09-22.12-33.58-25.2-53.47c-0.84-5.34-1.27-10.85-1.27-16.35c0-28.92,12.08-56.88,33.15-76.69
					c0.97-0.91,2.49-0.91,3.46,0c21.07,19.81,33.15,47.76,33.15,76.69c0,5.51-0.43,11.01-1.27,16.36
					c-3.08,19.88-11.8,38.38-25.21,53.48c-2.17,2.44-4.41,4.75-6.67,6.88C541.24,514.4,540.62,514.63,540,514.63z M540,365.88
					c-19.26,18.96-29.83,44.2-29.83,71.35c0,5.24,0.41,10.48,1.21,15.57c2.94,18.93,11.24,36.53,24,50.91
					c1.43,1.63,2.97,3.26,4.62,4.89c1.56-1.55,3.11-3.18,4.62-4.89c12.76-14.37,21.06-31.97,24-50.9c0.8-5.09,1.21-10.33,1.21-15.58
					C569.83,410.08,559.26,384.84,540,365.88z"/>
				<g>
					<linearGradient id="SVGID_14_" gradientUnits="userSpaceOnUse" x1="414.7532" y1="474.8311" x2="665.2462" y2="474.8311">
						<stop  offset="0" style="stop-color:#5600A0"/>
						<stop  offset="0.2729" style="stop-color:#4E0097"/>
						<stop  offset="0.7154" style="stop-color:#3A007F"/>
						<stop  offset="1" style="stop-color:#2A006C"/>
					</linearGradient>
					<path class="st13" d="M516.85,518.56c-17.74,0-35.3-4.5-51.08-13.27c-25.29-14.06-43.86-38.19-50.94-66.22
						c-0.33-1.29,0.41-2.62,1.68-3.02c27.55-8.8,57.85-5.79,83.14,8.26c3.7,2.05,7.31,4.35,10.72,6.83c0.54,0.4,0.91,0.99,1.01,1.65
						c2.94,18.93,11.24,36.53,24,50.9c1.43,1.63,2.97,3.26,4.62,4.89c1.56-1.55,3.11-3.18,4.62-4.89
						c12.76-14.37,21.06-31.97,24-50.9c0.1-0.66,0.47-1.26,1.01-1.65c3.41-2.48,7.02-4.78,10.72-6.83
						c25.28-14.05,55.59-17.06,83.14-8.26c1.27,0.41,2.01,1.73,1.68,3.02c-7.08,28.03-25.64,52.16-50.94,66.22
						c-22.65,12.59-48.99,16.38-74.23,10.68C532.34,517.71,524.58,518.56,516.85,518.56z M420.34,440.16
						c7.16,25.69,24.5,47.73,47.88,60.72c20.68,11.5,44.59,15.28,67.71,10.79c-1.54-1.54-2.99-3.09-4.34-4.63
						c-13.16-14.82-21.81-32.93-25.04-52.42c-2.99-2.13-6.13-4.11-9.36-5.89C473.47,435.55,446.27,432.53,420.34,440.16z
						 M544.06,511.67c23.12,4.49,47.04,0.71,67.72-10.79c23.38-12.99,40.72-35.03,47.88-60.72c-25.93-7.63-53.13-4.62-76.86,8.57
						c-3.22,1.79-6.37,3.76-9.36,5.89c-3.23,19.49-11.87,37.6-25.05,52.43C546.98,508.66,545.53,510.2,544.06,511.67z"/>
				</g>
			</g>
		</g>
		<linearGradient id="SVGID_15_" gradientUnits="userSpaceOnUse" x1="521.8391" y1="551.9162" x2="558.1613" y2="551.9162">
			<stop  offset="0" style="stop-color:#5600A0"/>
			<stop  offset="0.2729" style="stop-color:#4E0097"/>
			<stop  offset="0.7154" style="stop-color:#3A007F"/>
			<stop  offset="1" style="stop-color:#2A006C"/>
		</linearGradient>
		<path class="st14" d="M540,576.79c-0.62,0-1.24-0.23-1.73-0.69c-7.33-6.89-12.96-15.53-16.29-24.97
			c-0.35-0.98-0.05-2.08,0.74-2.76c5.08-4.35,9.35-9.52,12.68-15.39c0.87-1.55,1.64-3.05,2.29-4.47c0.41-0.9,1.3-1.48,2.29-1.48
			c0,0,0,0,0.01,0c0.99,0,1.88,0.57,2.29,1.47c0.66,1.44,1.42,2.91,2.31,4.49c3.33,5.86,7.6,11.03,12.68,15.38
			c0.79,0.68,1.09,1.77,0.74,2.76c-3.33,9.45-8.96,18.08-16.29,24.97C541.24,576.56,540.62,576.79,540,576.79z M527.33,551.05
			c2.82,7.31,7.16,14.05,12.67,19.68c5.5-5.63,9.84-12.36,12.67-19.68c-4.94-4.48-9.13-9.7-12.47-15.56
			c-0.07-0.12-0.14-0.24-0.2-0.36c-0.06,0.12-0.13,0.23-0.2,0.35C536.47,541.34,532.28,546.57,527.33,551.05z"/>
	</g>
	<g>
		<g>
			<linearGradient id="SVGID_16_" gradientUnits="userSpaceOnUse" x1="367.819" y1="651.2958" x2="627.924" y2="651.2958">
				<stop  offset="0" style="stop-color:#5600A0"/>
				<stop  offset="0.2729" style="stop-color:#4E0097"/>
				<stop  offset="0.7154" style="stop-color:#3A007F"/>
				<stop  offset="1" style="stop-color:#2A006C"/>
			</linearGradient>
			<path class="st15" d="M501.84,690.62l-2.56-3.42c4.98-3.72,32.21-15.25,44.64-16c4.15-0.25,10.75-0.36,18.39-0.49
				c14.15-0.24,31.76-0.53,38.57-1.93c2.97-0.61,6.11-1.12,9.16-1.61c4.89-0.79,12.2-1.98,13.61-3.2c0.04-1.15-0.55-4.01-2.77-6.77
				c-1.84-2.29-5.36-5.11-11.68-5.55c-3.64-0.26-9.41-0.41-16.09-0.59c-17.94-0.47-45.04-1.19-66.24-4.85
				c-15.13-2.61-29.3-10.75-41.81-17.93c-11.85-6.81-22.97-11.31-32.9-11.98c-8.74-0.58-25.39,6.73-37.02,11.13
				c-15.84,6-29.23,7.55-47.33,4.93l0.61-4.23c17,2.45,29.85,1.11,45.2-4.7c12.08-4.57,29.15-12.04,38.82-11.4
				c10.92,0.73,22.45,5.48,34.74,12.54c12.79,7.35,26.02,14.94,40.41,17.43c20.89,3.61,47.81,4.32,65.62,4.79
				c7.01,0.19,12.55,0.33,16.28,0.6c7.85,0.56,12.33,4.19,14.7,7.13c3,3.72,4,7.94,3.66,10.29c-0.54,3.73-5.94,4.77-17.13,6.58
				c-3,0.49-6.1,0.99-8.98,1.58c-7.21,1.48-24.29,1.76-39.36,2.01c-7.59,0.13-14.15,0.24-18.21,0.48
				C532.65,676.16,506.42,687.19,501.84,690.62z"/>
			<linearGradient id="SVGID_17_" gradientUnits="userSpaceOnUse" x1="378.7" y1="687.7781" x2="694.9532" y2="687.7781">
				<stop  offset="0" style="stop-color:#5600A0"/>
				<stop  offset="0.2729" style="stop-color:#4E0097"/>
				<stop  offset="0.7154" style="stop-color:#3A007F"/>
				<stop  offset="1" style="stop-color:#2A006C"/>
			</linearGradient>
			<path class="st16" d="M521.42,728.58c-12.44-1.8-24.14-5.29-33.09-10.13c-59.26-32.05-90.99-33.45-108.49-28.61l-1.14-4.12
				c16.86-4.66,37.26-1.92,63.75,7.28c21.82,7.58,40.78,17.83,47.91,21.69c15.12,8.18,38.57,12.34,59.72,10.6
				c6.89-0.57,14.82-1.43,22.5-2.26c14.99-1.62,29.14-3.16,35.49-2.56c0.74,0.06,4.36-0.74,19.95-13.37
				c10.12-8.19,22.07-18.72,32.62-28.01c13.72-12.08,22.28-19.57,25.41-21.25c3.7-1.98,4.8-3.87,4.62-4.9
				c-0.14-0.78-1.1-1.42-2.4-1.61c-0.51-0.07-1.14-0.19-1.88-0.32c-5.94-1.07-19.85-3.56-31.99,5.52
				c-6.26,4.68-14.01,11.03-21.51,17.17c-9.58,7.85-18.63,15.26-23.32,18.14c-8.95,5.51-58.22,4.98-67.28,0.59
				c-8.94-4.34-14.98-14.13-15.24-14.55l3.65-2.22c0.05,0.09,5.66,9.15,13.45,12.93c7.59,3.68,55.63,4.26,63.18-0.38
				c4.45-2.73,13.39-10.06,22.85-17.81c7.54-6.17,15.33-12.55,21.66-17.29c13.62-10.19,28.82-7.47,35.3-6.31
				c0.68,0.12,1.27,0.23,1.74,0.3c3.18,0.46,5.53,2.46,6,5.1c0.28,1.58,0.17,5.67-6.81,9.4c-2.85,1.53-13.42,10.84-24.61,20.69
				c-10.6,9.34-22.62,19.92-32.82,28.18c-15.96,12.92-20.48,14.48-22.97,14.25c-5.91-0.55-20.51,1.03-34.63,2.56
				c-7.7,0.83-15.67,1.7-22.61,2.27C540.93,730.33,530.95,729.96,521.42,728.58z"/>
			<linearGradient id="SVGID_18_" gradientUnits="userSpaceOnUse" x1="550.4614" y1="623.4128" x2="581.1986" y2="623.4128">
				<stop  offset="0" style="stop-color:#5600A0"/>
				<stop  offset="0.2729" style="stop-color:#4E0097"/>
				<stop  offset="0.7154" style="stop-color:#3A007F"/>
				<stop  offset="1" style="stop-color:#2A006C"/>
			</linearGradient>
			<path class="st17" d="M551.58,647.54c-1.37-7.93-2.87-33.88,4.67-42.87c4.12-4.91,9.36-7.77,14.02-7.64
				c2.22,0.06,3.98,0.83,4.98,2.15c0.95,1.27,1.22,4.25,1.94,16.45c0.63,10.67,1.69,28.54,4.01,31.6l-3.41,2.58
				c-2.88-3.79-3.87-17.03-4.87-33.93c-0.35-5.93-0.75-12.61-1.19-14.21c-0.21-0.13-0.73-0.36-1.71-0.37
				c-2.59-0.02-6.7,1.58-10.5,6.11c-5.65,6.74-5.43,29.56-3.73,39.4L551.58,647.54z M571.68,601.48L571.68,601.48L571.68,601.48z"/>
			<linearGradient id="SVGID_19_" gradientUnits="userSpaceOnUse" x1="611.7183" y1="628.1143" x2="645.3149" y2="628.1143">
				<stop  offset="0" style="stop-color:#5600A0"/>
				<stop  offset="0.2729" style="stop-color:#4E0097"/>
				<stop  offset="0.7154" style="stop-color:#3A007F"/>
				<stop  offset="1" style="stop-color:#2A006C"/>
			</linearGradient>
			<path class="st18" d="M629.77,676.05l-3.79-1.97c6.06-11.66,12.07-32.61,13.98-48.72c1.07-9.05,0.91-18.24,0.78-25.62
				c-0.1-5.59-0.18-10.01,0.26-13.05c0.21-1.42-0.39-1.83-1-2.04c-2.38-0.82-7.56,1.02-10.74,6.51c-4.22,7.31-6.33,26.86-7.47,37.36
				c-0.28,2.61-0.51,4.68-0.7,6.03c-1.03,7.11-5.33,16.21-5.52,16.6l-3.86-1.84c0.04-0.09,4.21-8.91,5.14-15.37
				c0.18-1.27,0.4-3.3,0.68-5.87c1.25-11.58,3.34-30.95,8.02-39.04c4.19-7.25,11.34-9.97,15.84-8.41c2.82,0.98,4.29,3.54,3.84,6.69
				c-0.39,2.7-0.31,7.18-0.22,12.37c0.13,7.51,0.29,16.85-0.81,26.19C642.25,642.41,636.04,663.99,629.77,676.05z"/>
			<linearGradient id="SVGID_20_" gradientUnits="userSpaceOnUse" x1="579.1011" y1="682.7128" x2="603.0499" y2="682.7128">
				<stop  offset="0" style="stop-color:#5600A0"/>
				<stop  offset="0.2729" style="stop-color:#4E0097"/>
				<stop  offset="0.7154" style="stop-color:#3A007F"/>
				<stop  offset="1" style="stop-color:#2A006C"/>
			</linearGradient>
			<path class="st19" d="M579.55,695.81l-0.04-4.27c-0.25,0-0.4,0.06-0.41,0.06c2.3-0.94,14.73-14.02,20.48-21.99l3.46,2.5
				c-2.76,3.82-7.61,9.53-12.35,14.55C582.09,695.78,580.5,695.8,579.55,695.81z"/>
			<linearGradient id="SVGID_21_" gradientUnits="userSpaceOnUse" x1="584.8528" y1="616.2784" x2="616.7887" y2="616.2784">
				<stop  offset="0" style="stop-color:#5600A0"/>
				<stop  offset="0.2729" style="stop-color:#4E0097"/>
				<stop  offset="0.7154" style="stop-color:#3A007F"/>
				<stop  offset="1" style="stop-color:#2A006C"/>
			</linearGradient>
			<path class="st20" d="M586.69,648.74c0-0.17,0.4-17.27-1.56-34.49c-2.07-18.25,8.02-28.26,13.24-30.24
				c1.54-0.58,2.67-0.21,3.35,0.21c2.14,1.33,2.46,4.56,2.94,9.46c0.29,2.97,0.62,6.34,1.39,9.84c0.7,3.18,1.98,7.2,3.47,11.86
				c3.11,9.75,6.99,21.89,7.27,32.53l-4.27,0.11c-0.27-10.03-4.04-21.85-7.07-31.34c-1.52-4.76-2.83-8.87-3.57-12.24
				c-0.83-3.75-1.18-7.4-1.47-10.34c-0.21-2.18-0.47-4.83-0.87-5.94c-3.01,1.47-12.03,9.18-10.16,25.61
				c1.99,17.53,1.59,34.91,1.58,35.08L586.69,648.74z"/>
			<linearGradient id="SVGID_22_" gradientUnits="userSpaceOnUse" x1="553.8989" y1="682.9251" x2="579.3173" y2="682.9251">
				<stop  offset="0" style="stop-color:#5600A0"/>
				<stop  offset="0.2729" style="stop-color:#4E0097"/>
				<stop  offset="0.7154" style="stop-color:#3A007F"/>
				<stop  offset="1" style="stop-color:#2A006C"/>
			</linearGradient>
			<path class="st21" d="M556.63,694.48l-2.73-3.29c7.51-6.22,20.07-17.09,21.83-19.81l3.59,2.32
				C576.62,677.86,558.66,692.79,556.63,694.48z"/>
		</g>
	</g>
</g>
</svg>
